M48
; DRILL file {KiCad 9.0.1} date 2025-04-23T14:31:25+0700
; FORMAT={-:-/ absolute / inch / decimal}
; #@! TF.CreationDate,2025-04-23T14:31:25+07:00
; #@! TF.GenerationSoftware,Kicad,Pcbnew,9.0.1
; #@! TF.FileFunction,MixedPlating,1,2
FMAT,2
INCH
; #@! TA.AperFunction,Plated,PTH,ViaDrill
T1C0.0118
; #@! TA.AperFunction,Plated,PTH,ComponentDrill
T2C0.0394
; #@! TA.AperFunction,Plated,PTH,ComponentDrill
T3C0.0512
; #@! TA.AperFunction,NonPlated,NPTH,ComponentDrill
T4C0.1575
%
G90
G05
T1
X4.035Y-4.498
X4.044Y-2.644
X4.047Y-3.42
X4.081Y-4.783
X4.196Y-3.525
X4.198Y-3.327
X4.201Y-3.174
X4.222Y-4.676
X4.261Y-3.427
X4.27Y-4.547
X4.273Y-3.996
X4.3227Y-3.368
X4.3227Y-3.4034
X4.3227Y-3.436
X4.326Y-4.676
X4.439Y-2.615
X4.444Y-3.311
X4.444Y-4.675
X4.452Y-4.391
X4.453Y-3.596
X4.565Y-4.881
X4.68Y-4.674
X4.742Y-3.517
X4.7646Y-3.574
X4.7764Y-3.3433
X4.7873Y-3.634
X4.812Y-4.524
X4.847Y-3.161
X4.865Y-3.33
X4.878Y-4.309
X4.889Y-3.161
X4.896Y-3.651
X4.916Y-4.675
X4.917Y-4.566
X4.977Y-3.176
X5.014Y-3.108
X5.023Y-4.175
X5.024Y-3.742
X5.024Y-3.886
X5.024Y-4.031
X5.0344Y-3.3202
X5.037Y-3.573
X5.099Y-4.784
X5.109Y-4.444
X5.114Y-3.688
X5.114Y-3.831
X5.114Y-3.975
X5.114Y-4.12
X5.19Y-3.573
X5.223Y-3.244
X5.24Y-4.804
X5.277Y-4.461
X5.398Y-4.671
X5.398Y-4.756
X5.413Y-4.83
X5.568Y-2.649
X5.581Y-3.972
X5.634Y-4.48
X5.707Y-4.549
X5.717Y-4.631
X5.766Y-4.719
X5.794Y-4.553
X5.823Y-3.106
X5.842Y-4.862
X5.87Y-4.482
X5.886Y-4.645
X5.907Y-3.009
X5.926Y-2.644
X5.967Y-4.217
X5.991Y-4.889
X6.048Y-4.645
X6.048Y-4.711
X6.069Y-3.151
X6.105Y-3.157
X6.106Y-3.332
X6.133Y-4.835
X6.137Y-4.514
X6.172Y-4.304
X6.228Y-4.886
X6.381Y-4.137
X6.382Y-4.583
X6.438Y-4.061
X6.451Y-4.405
X6.47Y-3.1
X6.492Y-3.796
X6.595Y-4.784
X6.649Y-3.918
X6.669Y-3.184
X6.682Y-4.219
X6.694Y-3.676
X6.708Y-3.184
X6.729Y-4.412
X6.837Y-3.325
X6.839Y-3.157
X6.879Y-3.707
X6.8948Y-3.3186
X6.903Y-3.098
X6.906Y-3.185
X6.921Y-2.644
X6.989Y-4.083
X6.995Y-3.917
X7.022Y-3.295
X7.101Y-3.108
X7.103Y-4.378
X7.216Y-4.834
X7.264Y-3.75
T2
X5.672Y-4.863
X5.772Y-4.863
T3
X6.4998Y-4.7899
X6.5982Y-4.3961
X6.6966Y-4.7899
T4
X6.5982Y-4.593
M30
