%TF.GenerationSoftware,KiCad,Pcbnew,9.0.1*%
%TF.CreationDate,2025-05-02T17:21:36+07:00*%
%TF.ProjectId,LCD-50-bias-supply,4c43442d-3530-42d6-9269-61732d737570,rev?*%
%TF.SameCoordinates,Original*%
%TF.FileFunction,Paste,Top*%
%TF.FilePolarity,Positive*%
%FSLAX45Y45*%
G04 Gerber Fmt 4.5, Leading zero omitted, Abs format (unit mm)*
G04 Created by KiCad (PCBNEW 9.0.1) date 2025-05-02 17:21:36*
%MOMM*%
%LPD*%
G01*
G04 APERTURE LIST*
G04 Aperture macros list*
%AMRoundRect*
0 Rectangle with rounded corners*
0 $1 Rounding radius*
0 $2 $3 $4 $5 $6 $7 $8 $9 X,Y pos of 4 corners*
0 Add a 4 corners polygon primitive as box body*
4,1,4,$2,$3,$4,$5,$6,$7,$8,$9,$2,$3,0*
0 Add four circle primitives for the rounded corners*
1,1,$1+$1,$2,$3*
1,1,$1+$1,$4,$5*
1,1,$1+$1,$6,$7*
1,1,$1+$1,$8,$9*
0 Add four rect primitives between the rounded corners*
20,1,$1+$1,$2,$3,$4,$5,0*
20,1,$1+$1,$4,$5,$6,$7,0*
20,1,$1+$1,$6,$7,$8,$9,0*
20,1,$1+$1,$8,$9,$2,$3,0*%
G04 Aperture macros list end*
%ADD10R,0.250000X1.100000*%
%ADD11R,1.700000X1.500000*%
%ADD12RoundRect,0.150000X-0.587500X-0.150000X0.587500X-0.150000X0.587500X0.150000X-0.587500X0.150000X0*%
%ADD13R,0.254000X0.812800*%
%ADD14R,1.524000X1.701800*%
%ADD15RoundRect,0.250000X-0.475000X0.250000X-0.475000X-0.250000X0.475000X-0.250000X0.475000X0.250000X0*%
%ADD16RoundRect,0.225000X0.250000X-0.225000X0.250000X0.225000X-0.250000X0.225000X-0.250000X-0.225000X0*%
%ADD17RoundRect,0.150000X0.587500X0.150000X-0.587500X0.150000X-0.587500X-0.150000X0.587500X-0.150000X0*%
%ADD18RoundRect,0.200000X-0.200000X-0.275000X0.200000X-0.275000X0.200000X0.275000X-0.200000X0.275000X0*%
%ADD19RoundRect,0.150000X0.512500X0.150000X-0.512500X0.150000X-0.512500X-0.150000X0.512500X-0.150000X0*%
%ADD20RoundRect,0.150000X0.150000X-0.587500X0.150000X0.587500X-0.150000X0.587500X-0.150000X-0.587500X0*%
%ADD21RoundRect,0.250000X-0.300000X0.300000X-0.300000X-0.300000X0.300000X-0.300000X0.300000X0.300000X0*%
%ADD22RoundRect,0.225000X-0.225000X-0.250000X0.225000X-0.250000X0.225000X0.250000X-0.225000X0.250000X0*%
%ADD23RoundRect,0.250001X1.549999X-0.499999X1.549999X0.499999X-1.549999X0.499999X-1.549999X-0.499999X0*%
%ADD24RoundRect,0.100000X0.637500X0.100000X-0.637500X0.100000X-0.637500X-0.100000X0.637500X-0.100000X0*%
%ADD25RoundRect,0.200000X0.200000X0.275000X-0.200000X0.275000X-0.200000X-0.275000X0.200000X-0.275000X0*%
%ADD26RoundRect,0.250000X0.250000X0.475000X-0.250000X0.475000X-0.250000X-0.475000X0.250000X-0.475000X0*%
%ADD27RoundRect,0.250000X0.475000X-0.250000X0.475000X0.250000X-0.475000X0.250000X-0.475000X-0.250000X0*%
%ADD28RoundRect,0.250000X-0.250000X-0.475000X0.250000X-0.475000X0.250000X0.475000X-0.250000X0.475000X0*%
%ADD29RoundRect,0.225000X0.225000X0.250000X-0.225000X0.250000X-0.225000X-0.250000X0.225000X-0.250000X0*%
%ADD30RoundRect,0.225000X-0.250000X0.225000X-0.250000X-0.225000X0.250000X-0.225000X0.250000X0.225000X0*%
G04 APERTURE END LIST*
D10*
%TO.C,J1*%
X10687180Y-11758400D03*
X10737180Y-11758400D03*
X10787180Y-11758400D03*
X10837180Y-11758400D03*
X10887180Y-11758400D03*
X10937180Y-11758400D03*
X10987180Y-11758400D03*
X11037180Y-11758400D03*
X11087180Y-11758400D03*
X11137180Y-11758400D03*
X11187180Y-11758400D03*
X11237180Y-11758400D03*
X11287180Y-11758400D03*
X11337180Y-11758400D03*
X11387180Y-11758400D03*
X11437180Y-11758400D03*
X11487180Y-11758400D03*
X11537180Y-11758400D03*
X11587180Y-11758400D03*
X11637180Y-11758400D03*
X11687180Y-11758400D03*
X11737180Y-11758400D03*
X11787180Y-11758400D03*
X11837180Y-11758400D03*
X11887180Y-11758400D03*
X11937180Y-11758400D03*
X11987180Y-11758400D03*
X12037180Y-11758400D03*
X12087180Y-11758400D03*
X12137180Y-11758400D03*
X12187180Y-11758400D03*
X12237180Y-11758400D03*
X12287180Y-11758400D03*
X12337180Y-11758400D03*
X12387180Y-11758400D03*
X12437180Y-11758400D03*
X12487180Y-11758400D03*
X12537180Y-11758400D03*
X12587180Y-11758400D03*
X12637180Y-11758400D03*
D11*
X10522180Y-12148400D03*
X12802180Y-12148400D03*
%TD*%
D12*
%TO.C,D13*%
X17002020Y-9425660D03*
X17002020Y-9615660D03*
X17189520Y-9520660D03*
%TD*%
D13*
%TO.C,J3*%
X17639520Y-8286930D03*
X17589520Y-8286930D03*
X17539520Y-8286930D03*
X17489520Y-8286930D03*
X17439520Y-8286930D03*
X17389520Y-8286930D03*
X17339520Y-8286930D03*
X17289520Y-8286930D03*
X17239520Y-8286930D03*
X17189520Y-8286930D03*
X17139520Y-8286930D03*
X17089520Y-8286930D03*
X17039520Y-8286930D03*
X16989520Y-8286930D03*
X16939520Y-8286930D03*
X16889520Y-8286930D03*
X16839520Y-8286930D03*
X16789520Y-8286930D03*
X16739520Y-8286930D03*
X16689520Y-8286930D03*
X16639520Y-8286930D03*
X16589520Y-8286930D03*
X16539520Y-8286930D03*
X16489520Y-8286930D03*
X16439520Y-8286930D03*
X16389520Y-8286930D03*
X16339520Y-8286930D03*
X16289520Y-8286930D03*
X16239520Y-8286930D03*
X16189520Y-8286930D03*
X16139520Y-8286930D03*
X16089520Y-8286930D03*
X16039520Y-8286930D03*
X15989520Y-8286930D03*
X15939520Y-8286930D03*
X15889520Y-8286930D03*
X15839520Y-8286930D03*
X15789520Y-8286930D03*
X15739520Y-8286930D03*
X15689520Y-8286930D03*
X15639520Y-8286930D03*
X15589520Y-8286930D03*
X15539520Y-8286930D03*
X15489520Y-8286930D03*
X15439520Y-8286930D03*
X15389520Y-8286930D03*
X15339520Y-8286930D03*
X15289520Y-8286930D03*
X15239520Y-8286930D03*
X15189520Y-8286930D03*
D14*
X15023870Y-7885610D03*
X17805170Y-7885610D03*
%TD*%
D15*
%TO.C,C10*%
X14497090Y-11260450D03*
X14497090Y-11450450D03*
%TD*%
D16*
%TO.C,C8*%
X17094520Y-10715020D03*
X17094520Y-10560020D03*
%TD*%
D17*
%TO.C,D12*%
X17662700Y-9598160D03*
X17662700Y-9408160D03*
X17475200Y-9503160D03*
%TD*%
D18*
%TO.C,R3*%
X15113090Y-12131570D03*
X15278090Y-12131570D03*
%TD*%
D19*
%TO.C,U2*%
X15872450Y-11831210D03*
X15872450Y-11736210D03*
X15872450Y-11641210D03*
X15644950Y-11641210D03*
X15644950Y-11831210D03*
%TD*%
D20*
%TO.C,D4*%
X16999520Y-10373130D03*
X17189520Y-10373130D03*
X17094520Y-10185630D03*
%TD*%
D15*
%TO.C,C13*%
X14718070Y-11260450D03*
X14718070Y-11450450D03*
%TD*%
D18*
%TO.C,R5*%
X15113090Y-11799677D03*
X15278090Y-11799677D03*
%TD*%
D21*
%TO.C,D3*%
X14248170Y-11260450D03*
X14248170Y-11540450D03*
%TD*%
D17*
%TO.C,D5*%
X16655800Y-10721230D03*
X16655800Y-10531230D03*
X16468300Y-10626230D03*
%TD*%
D13*
%TO.C,J2*%
X12887180Y-8286930D03*
X12837180Y-8286930D03*
X12787180Y-8286930D03*
X12737180Y-8286930D03*
X12687180Y-8286930D03*
X12637180Y-8286930D03*
X12587180Y-8286930D03*
X12537180Y-8286930D03*
X12487180Y-8286930D03*
X12437180Y-8286930D03*
X12387180Y-8286930D03*
X12337180Y-8286930D03*
X12287180Y-8286930D03*
X12237180Y-8286930D03*
X12187180Y-8286930D03*
X12137180Y-8286930D03*
X12087180Y-8286930D03*
X12037180Y-8286930D03*
X11987180Y-8286930D03*
X11937180Y-8286930D03*
X11887180Y-8286930D03*
X11837180Y-8286930D03*
X11787180Y-8286930D03*
X11737180Y-8286930D03*
X11687180Y-8286930D03*
X11637180Y-8286930D03*
X11587180Y-8286930D03*
X11537180Y-8286930D03*
X11487180Y-8286930D03*
X11437180Y-8286930D03*
X11387180Y-8286930D03*
X11337180Y-8286930D03*
X11287180Y-8286930D03*
X11237180Y-8286930D03*
X11187180Y-8286930D03*
X11137180Y-8286930D03*
X11087180Y-8286930D03*
X11037180Y-8286930D03*
X10987180Y-8286930D03*
X10937180Y-8286930D03*
X10887180Y-8286930D03*
X10837180Y-8286930D03*
X10787180Y-8286930D03*
X10737180Y-8286930D03*
X10687180Y-8286930D03*
X10637180Y-8286930D03*
X10587180Y-8286930D03*
X10537180Y-8286930D03*
X10487180Y-8286930D03*
X10437180Y-8286930D03*
D14*
X10271530Y-7885610D03*
X13052830Y-7885610D03*
%TD*%
D17*
%TO.C,Q1*%
X17660620Y-9229860D03*
X17660620Y-9039860D03*
X17473120Y-9134860D03*
%TD*%
D18*
%TO.C,R4*%
X15113090Y-11633730D03*
X15278090Y-11633730D03*
%TD*%
%TO.C,R2*%
X13881640Y-10876280D03*
X14046640Y-10876280D03*
%TD*%
D22*
%TO.C,C5*%
X13847810Y-12267170D03*
X14002810Y-12267170D03*
%TD*%
D23*
%TO.C,L1*%
X13881640Y-11617030D03*
X13881640Y-11312030D03*
%TD*%
D24*
%TO.C,U1*%
X14820670Y-11993830D03*
X14820670Y-11928830D03*
X14820670Y-11863830D03*
X14820670Y-11798830D03*
X14248170Y-11798830D03*
X14248170Y-11863830D03*
X14248170Y-11928830D03*
X14248170Y-11993830D03*
%TD*%
D25*
%TO.C,R8*%
X15846280Y-12279770D03*
X15681280Y-12279770D03*
%TD*%
D22*
%TO.C,C9*%
X16089600Y-10626230D03*
X16244600Y-10626230D03*
%TD*%
D20*
%TO.C,D2*%
X17475200Y-10370360D03*
X17665200Y-10370360D03*
X17570200Y-10182860D03*
%TD*%
D26*
%TO.C,C2*%
X14002810Y-11863830D03*
X13812810Y-11863830D03*
%TD*%
D27*
%TO.C,C16*%
X16091440Y-11831210D03*
X16091440Y-11641210D03*
%TD*%
D28*
%TO.C,C1*%
X17473120Y-8836160D03*
X17663120Y-8836160D03*
%TD*%
D25*
%TO.C,R1*%
X17640200Y-9753600D03*
X17475200Y-9753600D03*
%TD*%
D26*
%TO.C,C12*%
X16655800Y-10314940D03*
X16465800Y-10314940D03*
%TD*%
D29*
%TO.C,C7*%
X15273090Y-11965623D03*
X15118090Y-11965623D03*
%TD*%
D26*
%TO.C,C14*%
X17189200Y-8834120D03*
X16999200Y-8834120D03*
%TD*%
%TO.C,C3*%
X14002810Y-12079210D03*
X13812810Y-12079210D03*
%TD*%
D25*
%TO.C,R7*%
X15846280Y-12120880D03*
X15681280Y-12120880D03*
%TD*%
%TO.C,R6*%
X17189400Y-9773920D03*
X17024400Y-9773920D03*
%TD*%
D30*
%TO.C,C6*%
X17570200Y-10560020D03*
X17570200Y-10715020D03*
%TD*%
D22*
%TO.C,C15*%
X15686280Y-11465560D03*
X15841280Y-11465560D03*
%TD*%
D28*
%TO.C,C4*%
X17475200Y-9949180D03*
X17665200Y-9949180D03*
%TD*%
D17*
%TO.C,Q2*%
X17189200Y-9220090D03*
X17189200Y-9030090D03*
X17001700Y-9125090D03*
%TD*%
D26*
%TO.C,C11*%
X17189520Y-9951720D03*
X16999520Y-9951720D03*
%TD*%
M02*
