%TF.GenerationSoftware,KiCad,Pcbnew,9.0.1*%
%TF.CreationDate,2025-05-02T17:21:36+07:00*%
%TF.ProjectId,LCD-50-bias-supply,4c43442d-3530-42d6-9269-61732d737570,rev?*%
%TF.SameCoordinates,Original*%
%TF.FileFunction,Legend,Top*%
%TF.FilePolarity,Positive*%
%FSLAX45Y45*%
G04 Gerber Fmt 4.5, Leading zero omitted, Abs format (unit mm)*
G04 Created by KiCad (PCBNEW 9.0.1) date 2025-05-02 17:21:36*
%MOMM*%
%LPD*%
G01*
G04 APERTURE LIST*
%ADD10C,0.250000*%
%ADD11C,0.150000*%
%ADD12C,0.120000*%
%ADD13C,0.152400*%
G04 APERTURE END LIST*
D10*
X13340651Y-10931887D02*
X13373984Y-11031887D01*
X13373984Y-11031887D02*
X13407318Y-10931887D01*
X13469222Y-10931887D02*
X13469222Y-11003315D01*
X13469222Y-11003315D02*
X13464461Y-11017601D01*
X13464461Y-11017601D02*
X13454937Y-11027125D01*
X13454937Y-11027125D02*
X13440651Y-11031887D01*
X13440651Y-11031887D02*
X13431127Y-11031887D01*
X13516842Y-11031887D02*
X13516842Y-10931887D01*
X13516842Y-10931887D02*
X13550175Y-11003315D01*
X13550175Y-11003315D02*
X13583508Y-10931887D01*
X13583508Y-10931887D02*
X13583508Y-11031887D01*
X13631127Y-11031887D02*
X13631127Y-10931887D01*
X13631127Y-10931887D02*
X13669222Y-10931887D01*
X13669222Y-10931887D02*
X13678746Y-10936649D01*
X13678746Y-10936649D02*
X13683508Y-10941411D01*
X13683508Y-10941411D02*
X13688270Y-10950935D01*
X13688270Y-10950935D02*
X13688270Y-10965220D01*
X13688270Y-10965220D02*
X13683508Y-10974744D01*
X13683508Y-10974744D02*
X13678746Y-10979506D01*
X13678746Y-10979506D02*
X13669222Y-10984268D01*
X13669222Y-10984268D02*
X13631127Y-10984268D01*
X12670091Y-11143742D02*
X12703424Y-11243742D01*
X12703424Y-11243742D02*
X12736758Y-11143742D01*
X12770091Y-11243742D02*
X12770091Y-11143742D01*
X12770091Y-11143742D02*
X12793901Y-11143742D01*
X12793901Y-11143742D02*
X12808186Y-11148504D01*
X12808186Y-11148504D02*
X12817710Y-11158028D01*
X12817710Y-11158028D02*
X12822472Y-11167551D01*
X12822472Y-11167551D02*
X12827234Y-11186599D01*
X12827234Y-11186599D02*
X12827234Y-11200885D01*
X12827234Y-11200885D02*
X12822472Y-11219932D01*
X12822472Y-11219932D02*
X12817710Y-11229456D01*
X12817710Y-11229456D02*
X12808186Y-11238980D01*
X12808186Y-11238980D02*
X12793901Y-11243742D01*
X12793901Y-11243742D02*
X12770091Y-11243742D01*
X12870091Y-11243742D02*
X12870091Y-11143742D01*
X12870091Y-11143742D02*
X12893901Y-11143742D01*
X12893901Y-11143742D02*
X12908186Y-11148504D01*
X12908186Y-11148504D02*
X12917710Y-11158028D01*
X12917710Y-11158028D02*
X12922472Y-11167551D01*
X12922472Y-11167551D02*
X12927234Y-11186599D01*
X12927234Y-11186599D02*
X12927234Y-11200885D01*
X12927234Y-11200885D02*
X12922472Y-11219932D01*
X12922472Y-11219932D02*
X12917710Y-11229456D01*
X12917710Y-11229456D02*
X12908186Y-11238980D01*
X12908186Y-11238980D02*
X12893901Y-11243742D01*
X12893901Y-11243742D02*
X12870091Y-11243742D01*
X12845785Y-9256522D02*
X12855309Y-9256522D01*
X12855309Y-9256522D02*
X12864833Y-9261284D01*
X12864833Y-9261284D02*
X12869595Y-9266046D01*
X12869595Y-9266046D02*
X12874357Y-9275570D01*
X12874357Y-9275570D02*
X12879119Y-9294617D01*
X12879119Y-9294617D02*
X12879119Y-9318427D01*
X12879119Y-9318427D02*
X12874357Y-9337474D01*
X12874357Y-9337474D02*
X12869595Y-9346998D01*
X12869595Y-9346998D02*
X12864833Y-9351760D01*
X12864833Y-9351760D02*
X12855309Y-9356522D01*
X12855309Y-9356522D02*
X12845785Y-9356522D01*
X12845785Y-9356522D02*
X12836262Y-9351760D01*
X12836262Y-9351760D02*
X12831500Y-9346998D01*
X12831500Y-9346998D02*
X12826738Y-9337474D01*
X12826738Y-9337474D02*
X12821976Y-9318427D01*
X12821976Y-9318427D02*
X12821976Y-9294617D01*
X12821976Y-9294617D02*
X12826738Y-9275570D01*
X12826738Y-9275570D02*
X12831500Y-9266046D01*
X12831500Y-9266046D02*
X12836262Y-9261284D01*
X12836262Y-9261284D02*
X12845785Y-9256522D01*
X15132437Y-10020744D02*
X15122913Y-10015982D01*
X15122913Y-10015982D02*
X15108627Y-10015982D01*
X15108627Y-10015982D02*
X15094342Y-10020744D01*
X15094342Y-10020744D02*
X15084818Y-10030268D01*
X15084818Y-10030268D02*
X15080056Y-10039791D01*
X15080056Y-10039791D02*
X15075294Y-10058839D01*
X15075294Y-10058839D02*
X15075294Y-10073125D01*
X15075294Y-10073125D02*
X15080056Y-10092172D01*
X15080056Y-10092172D02*
X15084818Y-10101696D01*
X15084818Y-10101696D02*
X15094342Y-10111220D01*
X15094342Y-10111220D02*
X15108627Y-10115982D01*
X15108627Y-10115982D02*
X15118151Y-10115982D01*
X15118151Y-10115982D02*
X15132437Y-10111220D01*
X15132437Y-10111220D02*
X15137199Y-10106458D01*
X15137199Y-10106458D02*
X15137199Y-10073125D01*
X15137199Y-10073125D02*
X15118151Y-10073125D01*
X15180056Y-10115982D02*
X15180056Y-10015982D01*
X15180056Y-10015982D02*
X15237199Y-10115982D01*
X15237199Y-10115982D02*
X15237199Y-10015982D01*
X15284818Y-10115982D02*
X15284818Y-10015982D01*
X15284818Y-10015982D02*
X15308627Y-10015982D01*
X15308627Y-10015982D02*
X15322913Y-10020744D01*
X15322913Y-10020744D02*
X15332437Y-10030268D01*
X15332437Y-10030268D02*
X15337199Y-10039791D01*
X15337199Y-10039791D02*
X15341961Y-10058839D01*
X15341961Y-10058839D02*
X15341961Y-10073125D01*
X15341961Y-10073125D02*
X15337199Y-10092172D01*
X15337199Y-10092172D02*
X15332437Y-10101696D01*
X15332437Y-10101696D02*
X15322913Y-10111220D01*
X15322913Y-10111220D02*
X15308627Y-10115982D01*
X15308627Y-10115982D02*
X15284818Y-10115982D01*
X13354937Y-9830797D02*
X13354937Y-9911749D01*
X13354937Y-9911749D02*
X13359699Y-9921273D01*
X13359699Y-9921273D02*
X13364461Y-9926035D01*
X13364461Y-9926035D02*
X13373984Y-9930797D01*
X13373984Y-9930797D02*
X13393032Y-9930797D01*
X13393032Y-9930797D02*
X13402556Y-9926035D01*
X13402556Y-9926035D02*
X13407318Y-9921273D01*
X13407318Y-9921273D02*
X13412080Y-9911749D01*
X13412080Y-9911749D02*
X13412080Y-9830797D01*
X13459699Y-9930797D02*
X13459699Y-9830797D01*
X13459699Y-9830797D02*
X13497794Y-9830797D01*
X13497794Y-9830797D02*
X13507318Y-9835559D01*
X13507318Y-9835559D02*
X13512080Y-9840321D01*
X13512080Y-9840321D02*
X13516841Y-9849845D01*
X13516841Y-9849845D02*
X13516841Y-9864130D01*
X13516841Y-9864130D02*
X13512080Y-9873654D01*
X13512080Y-9873654D02*
X13507318Y-9878416D01*
X13507318Y-9878416D02*
X13497794Y-9883178D01*
X13497794Y-9883178D02*
X13459699Y-9883178D01*
X13631127Y-9826035D02*
X13545413Y-9954606D01*
X13664461Y-9930797D02*
X13664461Y-9830797D01*
X13664461Y-9830797D02*
X13688270Y-9830797D01*
X13688270Y-9830797D02*
X13702556Y-9835559D01*
X13702556Y-9835559D02*
X13712080Y-9845083D01*
X13712080Y-9845083D02*
X13716841Y-9854606D01*
X13716841Y-9854606D02*
X13721603Y-9873654D01*
X13721603Y-9873654D02*
X13721603Y-9887940D01*
X13721603Y-9887940D02*
X13716841Y-9906987D01*
X13716841Y-9906987D02*
X13712080Y-9916511D01*
X13712080Y-9916511D02*
X13702556Y-9926035D01*
X13702556Y-9926035D02*
X13688270Y-9930797D01*
X13688270Y-9930797D02*
X13664461Y-9930797D01*
X13783508Y-9830797D02*
X13802556Y-9830797D01*
X13802556Y-9830797D02*
X13812080Y-9835559D01*
X13812080Y-9835559D02*
X13821603Y-9845083D01*
X13821603Y-9845083D02*
X13826365Y-9864130D01*
X13826365Y-9864130D02*
X13826365Y-9897464D01*
X13826365Y-9897464D02*
X13821603Y-9916511D01*
X13821603Y-9916511D02*
X13812080Y-9926035D01*
X13812080Y-9926035D02*
X13802556Y-9930797D01*
X13802556Y-9930797D02*
X13783508Y-9930797D01*
X13783508Y-9930797D02*
X13773984Y-9926035D01*
X13773984Y-9926035D02*
X13764461Y-9916511D01*
X13764461Y-9916511D02*
X13759699Y-9897464D01*
X13759699Y-9897464D02*
X13759699Y-9864130D01*
X13759699Y-9864130D02*
X13764461Y-9845083D01*
X13764461Y-9845083D02*
X13773984Y-9835559D01*
X13773984Y-9835559D02*
X13783508Y-9830797D01*
X13859699Y-9830797D02*
X13883508Y-9930797D01*
X13883508Y-9930797D02*
X13902556Y-9859368D01*
X13902556Y-9859368D02*
X13921603Y-9930797D01*
X13921603Y-9930797D02*
X13945413Y-9830797D01*
X13983508Y-9930797D02*
X13983508Y-9830797D01*
X13983508Y-9830797D02*
X14040651Y-9930797D01*
X14040651Y-9930797D02*
X14040651Y-9830797D01*
X17998057Y-10125112D02*
X18074247Y-10125112D01*
X18117104Y-10134635D02*
X18164723Y-10134635D01*
X18107581Y-10163207D02*
X18140914Y-10063207D01*
X18140914Y-10063207D02*
X18174247Y-10163207D01*
X18193295Y-10063207D02*
X18226628Y-10163207D01*
X18226628Y-10163207D02*
X18259962Y-10063207D01*
X18293295Y-10163207D02*
X18293295Y-10063207D01*
X18293295Y-10063207D02*
X18317104Y-10063207D01*
X18317104Y-10063207D02*
X18331390Y-10067969D01*
X18331390Y-10067969D02*
X18340914Y-10077493D01*
X18340914Y-10077493D02*
X18345676Y-10087016D01*
X18345676Y-10087016D02*
X18350438Y-10106064D01*
X18350438Y-10106064D02*
X18350438Y-10120350D01*
X18350438Y-10120350D02*
X18345676Y-10139397D01*
X18345676Y-10139397D02*
X18340914Y-10148921D01*
X18340914Y-10148921D02*
X18331390Y-10158445D01*
X18331390Y-10158445D02*
X18317104Y-10163207D01*
X18317104Y-10163207D02*
X18293295Y-10163207D01*
X18393295Y-10163207D02*
X18393295Y-10063207D01*
X18393295Y-10063207D02*
X18417104Y-10063207D01*
X18417104Y-10063207D02*
X18431390Y-10067969D01*
X18431390Y-10067969D02*
X18440914Y-10077493D01*
X18440914Y-10077493D02*
X18445676Y-10087016D01*
X18445676Y-10087016D02*
X18450438Y-10106064D01*
X18450438Y-10106064D02*
X18450438Y-10120350D01*
X18450438Y-10120350D02*
X18445676Y-10139397D01*
X18445676Y-10139397D02*
X18440914Y-10148921D01*
X18440914Y-10148921D02*
X18431390Y-10158445D01*
X18431390Y-10158445D02*
X18417104Y-10163207D01*
X18417104Y-10163207D02*
X18393295Y-10163207D01*
X13354937Y-10297827D02*
X13354937Y-10197827D01*
X13354937Y-10197827D02*
X13378746Y-10197827D01*
X13378746Y-10197827D02*
X13393032Y-10202589D01*
X13393032Y-10202589D02*
X13402556Y-10212113D01*
X13402556Y-10212113D02*
X13407318Y-10221636D01*
X13407318Y-10221636D02*
X13412080Y-10240684D01*
X13412080Y-10240684D02*
X13412080Y-10254970D01*
X13412080Y-10254970D02*
X13407318Y-10274017D01*
X13407318Y-10274017D02*
X13402556Y-10283541D01*
X13402556Y-10283541D02*
X13393032Y-10293065D01*
X13393032Y-10293065D02*
X13378746Y-10297827D01*
X13378746Y-10297827D02*
X13354937Y-10297827D01*
X13454937Y-10297827D02*
X13454937Y-10197827D01*
X13488270Y-10197827D02*
X13545413Y-10197827D01*
X13516841Y-10297827D02*
X13516841Y-10197827D01*
X13578746Y-10297827D02*
X13578746Y-10197827D01*
X13578746Y-10245446D02*
X13635889Y-10245446D01*
X13635889Y-10297827D02*
X13635889Y-10197827D01*
X17380510Y-11694922D02*
X17413844Y-11794922D01*
X17413844Y-11794922D02*
X17447177Y-11694922D01*
X17537653Y-11785398D02*
X17532891Y-11790160D01*
X17532891Y-11790160D02*
X17518605Y-11794922D01*
X17518605Y-11794922D02*
X17509082Y-11794922D01*
X17509082Y-11794922D02*
X17494796Y-11790160D01*
X17494796Y-11790160D02*
X17485272Y-11780636D01*
X17485272Y-11780636D02*
X17480510Y-11771112D01*
X17480510Y-11771112D02*
X17475748Y-11752065D01*
X17475748Y-11752065D02*
X17475748Y-11737779D01*
X17475748Y-11737779D02*
X17480510Y-11718731D01*
X17480510Y-11718731D02*
X17485272Y-11709208D01*
X17485272Y-11709208D02*
X17494796Y-11699684D01*
X17494796Y-11699684D02*
X17509082Y-11694922D01*
X17509082Y-11694922D02*
X17518605Y-11694922D01*
X17518605Y-11694922D02*
X17532891Y-11699684D01*
X17532891Y-11699684D02*
X17537653Y-11704446D01*
X17599558Y-11694922D02*
X17618605Y-11694922D01*
X17618605Y-11694922D02*
X17628129Y-11699684D01*
X17628129Y-11699684D02*
X17637653Y-11709208D01*
X17637653Y-11709208D02*
X17642415Y-11728255D01*
X17642415Y-11728255D02*
X17642415Y-11761588D01*
X17642415Y-11761588D02*
X17637653Y-11780636D01*
X17637653Y-11780636D02*
X17628129Y-11790160D01*
X17628129Y-11790160D02*
X17618605Y-11794922D01*
X17618605Y-11794922D02*
X17599558Y-11794922D01*
X17599558Y-11794922D02*
X17590034Y-11790160D01*
X17590034Y-11790160D02*
X17580510Y-11780636D01*
X17580510Y-11780636D02*
X17575748Y-11761588D01*
X17575748Y-11761588D02*
X17575748Y-11728255D01*
X17575748Y-11728255D02*
X17580510Y-11709208D01*
X17580510Y-11709208D02*
X17590034Y-11699684D01*
X17590034Y-11699684D02*
X17599558Y-11694922D01*
X17685272Y-11794922D02*
X17685272Y-11694922D01*
X17685272Y-11694922D02*
X17718605Y-11766350D01*
X17718605Y-11766350D02*
X17751939Y-11694922D01*
X17751939Y-11694922D02*
X17751939Y-11794922D01*
X13402556Y-9563767D02*
X13354937Y-9563767D01*
X13354937Y-9563767D02*
X13354937Y-9463767D01*
X13507318Y-9459005D02*
X13421603Y-9587576D01*
X13597794Y-9563767D02*
X13564461Y-9516148D01*
X13540651Y-9563767D02*
X13540651Y-9463767D01*
X13540651Y-9463767D02*
X13578746Y-9463767D01*
X13578746Y-9463767D02*
X13588270Y-9468529D01*
X13588270Y-9468529D02*
X13593032Y-9473291D01*
X13593032Y-9473291D02*
X13597794Y-9482815D01*
X13597794Y-9482815D02*
X13597794Y-9497100D01*
X13597794Y-9497100D02*
X13593032Y-9506624D01*
X13593032Y-9506624D02*
X13588270Y-9511386D01*
X13588270Y-9511386D02*
X13578746Y-9516148D01*
X13578746Y-9516148D02*
X13540651Y-9516148D01*
X17497177Y-11191684D02*
X17487653Y-11186922D01*
X17487653Y-11186922D02*
X17473367Y-11186922D01*
X17473367Y-11186922D02*
X17459082Y-11191684D01*
X17459082Y-11191684D02*
X17449558Y-11201208D01*
X17449558Y-11201208D02*
X17444796Y-11210731D01*
X17444796Y-11210731D02*
X17440034Y-11229779D01*
X17440034Y-11229779D02*
X17440034Y-11244065D01*
X17440034Y-11244065D02*
X17444796Y-11263112D01*
X17444796Y-11263112D02*
X17449558Y-11272636D01*
X17449558Y-11272636D02*
X17459082Y-11282160D01*
X17459082Y-11282160D02*
X17473367Y-11286922D01*
X17473367Y-11286922D02*
X17482891Y-11286922D01*
X17482891Y-11286922D02*
X17497177Y-11282160D01*
X17497177Y-11282160D02*
X17501939Y-11277398D01*
X17501939Y-11277398D02*
X17501939Y-11244065D01*
X17501939Y-11244065D02*
X17482891Y-11244065D01*
X17544796Y-11286922D02*
X17544796Y-11186922D01*
X17544796Y-11186922D02*
X17601939Y-11286922D01*
X17601939Y-11286922D02*
X17601939Y-11186922D01*
X17649558Y-11286922D02*
X17649558Y-11186922D01*
X17649558Y-11186922D02*
X17673367Y-11186922D01*
X17673367Y-11186922D02*
X17687653Y-11191684D01*
X17687653Y-11191684D02*
X17697177Y-11201208D01*
X17697177Y-11201208D02*
X17701939Y-11210731D01*
X17701939Y-11210731D02*
X17706701Y-11229779D01*
X17706701Y-11229779D02*
X17706701Y-11244065D01*
X17706701Y-11244065D02*
X17701939Y-11263112D01*
X17701939Y-11263112D02*
X17697177Y-11272636D01*
X17697177Y-11272636D02*
X17687653Y-11282160D01*
X17687653Y-11282160D02*
X17673367Y-11286922D01*
X17673367Y-11286922D02*
X17649558Y-11286922D01*
X13846111Y-10419842D02*
X13879444Y-10519842D01*
X13879444Y-10519842D02*
X13912778Y-10419842D01*
X13941349Y-10515080D02*
X13955635Y-10519842D01*
X13955635Y-10519842D02*
X13979444Y-10519842D01*
X13979444Y-10519842D02*
X13988968Y-10515080D01*
X13988968Y-10515080D02*
X13993730Y-10510318D01*
X13993730Y-10510318D02*
X13998492Y-10500794D01*
X13998492Y-10500794D02*
X13998492Y-10491270D01*
X13998492Y-10491270D02*
X13993730Y-10481747D01*
X13993730Y-10481747D02*
X13988968Y-10476985D01*
X13988968Y-10476985D02*
X13979444Y-10472223D01*
X13979444Y-10472223D02*
X13960397Y-10467461D01*
X13960397Y-10467461D02*
X13950873Y-10462699D01*
X13950873Y-10462699D02*
X13946111Y-10457937D01*
X13946111Y-10457937D02*
X13941349Y-10448413D01*
X13941349Y-10448413D02*
X13941349Y-10438890D01*
X13941349Y-10438890D02*
X13946111Y-10429366D01*
X13946111Y-10429366D02*
X13950873Y-10424604D01*
X13950873Y-10424604D02*
X13960397Y-10419842D01*
X13960397Y-10419842D02*
X13984206Y-10419842D01*
X13984206Y-10419842D02*
X13998492Y-10424604D01*
X14031825Y-10419842D02*
X14055635Y-10519842D01*
X14055635Y-10519842D02*
X14074682Y-10448413D01*
X14074682Y-10448413D02*
X14093730Y-10519842D01*
X14093730Y-10519842D02*
X14117540Y-10419842D01*
X14288968Y-10519842D02*
X14255635Y-10472223D01*
X14231825Y-10519842D02*
X14231825Y-10419842D01*
X14231825Y-10419842D02*
X14269921Y-10419842D01*
X14269921Y-10419842D02*
X14279444Y-10424604D01*
X14279444Y-10424604D02*
X14284206Y-10429366D01*
X14284206Y-10429366D02*
X14288968Y-10438890D01*
X14288968Y-10438890D02*
X14288968Y-10453175D01*
X14288968Y-10453175D02*
X14284206Y-10462699D01*
X14284206Y-10462699D02*
X14279444Y-10467461D01*
X14279444Y-10467461D02*
X14269921Y-10472223D01*
X14269921Y-10472223D02*
X14231825Y-10472223D01*
X14441349Y-10467461D02*
X14455635Y-10472223D01*
X14455635Y-10472223D02*
X14460397Y-10476985D01*
X14460397Y-10476985D02*
X14465159Y-10486509D01*
X14465159Y-10486509D02*
X14465159Y-10500794D01*
X14465159Y-10500794D02*
X14460397Y-10510318D01*
X14460397Y-10510318D02*
X14455635Y-10515080D01*
X14455635Y-10515080D02*
X14446111Y-10519842D01*
X14446111Y-10519842D02*
X14408016Y-10519842D01*
X14408016Y-10519842D02*
X14408016Y-10419842D01*
X14408016Y-10419842D02*
X14441349Y-10419842D01*
X14441349Y-10419842D02*
X14450873Y-10424604D01*
X14450873Y-10424604D02*
X14455635Y-10429366D01*
X14455635Y-10429366D02*
X14460397Y-10438890D01*
X14460397Y-10438890D02*
X14460397Y-10448413D01*
X14460397Y-10448413D02*
X14455635Y-10457937D01*
X14455635Y-10457937D02*
X14450873Y-10462699D01*
X14450873Y-10462699D02*
X14441349Y-10467461D01*
X14441349Y-10467461D02*
X14408016Y-10467461D01*
X14498492Y-10453175D02*
X14522302Y-10519842D01*
X14546111Y-10453175D02*
X14522302Y-10519842D01*
X14522302Y-10519842D02*
X14512778Y-10543651D01*
X14512778Y-10543651D02*
X14508016Y-10548413D01*
X14508016Y-10548413D02*
X14498492Y-10553175D01*
X14584206Y-10453175D02*
X14584206Y-10553175D01*
X14584206Y-10457937D02*
X14593730Y-10453175D01*
X14593730Y-10453175D02*
X14612778Y-10453175D01*
X14612778Y-10453175D02*
X14622302Y-10457937D01*
X14622302Y-10457937D02*
X14627063Y-10462699D01*
X14627063Y-10462699D02*
X14631825Y-10472223D01*
X14631825Y-10472223D02*
X14631825Y-10500794D01*
X14631825Y-10500794D02*
X14627063Y-10510318D01*
X14627063Y-10510318D02*
X14622302Y-10515080D01*
X14622302Y-10515080D02*
X14612778Y-10519842D01*
X14612778Y-10519842D02*
X14593730Y-10519842D01*
X14593730Y-10519842D02*
X14584206Y-10515080D01*
X14717540Y-10519842D02*
X14717540Y-10467461D01*
X14717540Y-10467461D02*
X14712778Y-10457937D01*
X14712778Y-10457937D02*
X14703254Y-10453175D01*
X14703254Y-10453175D02*
X14684206Y-10453175D01*
X14684206Y-10453175D02*
X14674683Y-10457937D01*
X14717540Y-10515080D02*
X14708016Y-10519842D01*
X14708016Y-10519842D02*
X14684206Y-10519842D01*
X14684206Y-10519842D02*
X14674683Y-10515080D01*
X14674683Y-10515080D02*
X14669921Y-10505556D01*
X14669921Y-10505556D02*
X14669921Y-10496032D01*
X14669921Y-10496032D02*
X14674683Y-10486509D01*
X14674683Y-10486509D02*
X14684206Y-10481747D01*
X14684206Y-10481747D02*
X14708016Y-10481747D01*
X14708016Y-10481747D02*
X14717540Y-10476985D01*
X14760397Y-10515080D02*
X14769921Y-10519842D01*
X14769921Y-10519842D02*
X14788968Y-10519842D01*
X14788968Y-10519842D02*
X14798492Y-10515080D01*
X14798492Y-10515080D02*
X14803254Y-10505556D01*
X14803254Y-10505556D02*
X14803254Y-10500794D01*
X14803254Y-10500794D02*
X14798492Y-10491270D01*
X14798492Y-10491270D02*
X14788968Y-10486509D01*
X14788968Y-10486509D02*
X14774683Y-10486509D01*
X14774683Y-10486509D02*
X14765159Y-10481747D01*
X14765159Y-10481747D02*
X14760397Y-10472223D01*
X14760397Y-10472223D02*
X14760397Y-10467461D01*
X14760397Y-10467461D02*
X14765159Y-10457937D01*
X14765159Y-10457937D02*
X14774683Y-10453175D01*
X14774683Y-10453175D02*
X14788968Y-10453175D01*
X14788968Y-10453175D02*
X14798492Y-10457937D01*
X14841349Y-10515080D02*
X14850873Y-10519842D01*
X14850873Y-10519842D02*
X14869921Y-10519842D01*
X14869921Y-10519842D02*
X14879444Y-10515080D01*
X14879444Y-10515080D02*
X14884206Y-10505556D01*
X14884206Y-10505556D02*
X14884206Y-10500794D01*
X14884206Y-10500794D02*
X14879444Y-10491270D01*
X14879444Y-10491270D02*
X14869921Y-10486509D01*
X14869921Y-10486509D02*
X14855635Y-10486509D01*
X14855635Y-10486509D02*
X14846111Y-10481747D01*
X14846111Y-10481747D02*
X14841349Y-10472223D01*
X14841349Y-10472223D02*
X14841349Y-10467461D01*
X14841349Y-10467461D02*
X14846111Y-10457937D01*
X14846111Y-10457937D02*
X14855635Y-10453175D01*
X14855635Y-10453175D02*
X14869921Y-10453175D01*
X14869921Y-10453175D02*
X14879444Y-10457937D01*
X17899951Y-6687547D02*
X17933284Y-6787547D01*
X17933284Y-6787547D02*
X17966618Y-6687547D01*
X18052332Y-6692309D02*
X18042808Y-6687547D01*
X18042808Y-6687547D02*
X18028523Y-6687547D01*
X18028523Y-6687547D02*
X18014237Y-6692309D01*
X18014237Y-6692309D02*
X18004713Y-6701833D01*
X18004713Y-6701833D02*
X17999951Y-6711356D01*
X17999951Y-6711356D02*
X17995189Y-6730404D01*
X17995189Y-6730404D02*
X17995189Y-6744690D01*
X17995189Y-6744690D02*
X17999951Y-6763737D01*
X17999951Y-6763737D02*
X18004713Y-6773261D01*
X18004713Y-6773261D02*
X18014237Y-6782785D01*
X18014237Y-6782785D02*
X18028523Y-6787547D01*
X18028523Y-6787547D02*
X18038046Y-6787547D01*
X18038046Y-6787547D02*
X18052332Y-6782785D01*
X18052332Y-6782785D02*
X18057094Y-6778023D01*
X18057094Y-6778023D02*
X18057094Y-6744690D01*
X18057094Y-6744690D02*
X18038046Y-6744690D01*
X18099951Y-6787547D02*
X18099951Y-6687547D01*
X18099951Y-6735166D02*
X18157094Y-6735166D01*
X18157094Y-6787547D02*
X18157094Y-6687547D01*
X13354937Y-10664857D02*
X13354937Y-10564857D01*
X13354937Y-10564857D02*
X13388270Y-10636285D01*
X13388270Y-10636285D02*
X13421603Y-10564857D01*
X13421603Y-10564857D02*
X13421603Y-10664857D01*
X13488270Y-10564857D02*
X13507318Y-10564857D01*
X13507318Y-10564857D02*
X13516841Y-10569619D01*
X13516841Y-10569619D02*
X13526365Y-10579143D01*
X13526365Y-10579143D02*
X13531127Y-10598190D01*
X13531127Y-10598190D02*
X13531127Y-10631524D01*
X13531127Y-10631524D02*
X13526365Y-10650571D01*
X13526365Y-10650571D02*
X13516841Y-10660095D01*
X13516841Y-10660095D02*
X13507318Y-10664857D01*
X13507318Y-10664857D02*
X13488270Y-10664857D01*
X13488270Y-10664857D02*
X13478746Y-10660095D01*
X13478746Y-10660095D02*
X13469222Y-10650571D01*
X13469222Y-10650571D02*
X13464461Y-10631524D01*
X13464461Y-10631524D02*
X13464461Y-10598190D01*
X13464461Y-10598190D02*
X13469222Y-10579143D01*
X13469222Y-10579143D02*
X13478746Y-10569619D01*
X13478746Y-10569619D02*
X13488270Y-10564857D01*
X13573984Y-10664857D02*
X13573984Y-10564857D01*
X13573984Y-10564857D02*
X13597794Y-10564857D01*
X13597794Y-10564857D02*
X13612080Y-10569619D01*
X13612080Y-10569619D02*
X13621603Y-10579143D01*
X13621603Y-10579143D02*
X13626365Y-10588666D01*
X13626365Y-10588666D02*
X13631127Y-10607714D01*
X13631127Y-10607714D02*
X13631127Y-10622000D01*
X13631127Y-10622000D02*
X13626365Y-10641047D01*
X13626365Y-10641047D02*
X13621603Y-10650571D01*
X13621603Y-10650571D02*
X13612080Y-10660095D01*
X13612080Y-10660095D02*
X13597794Y-10664857D01*
X13597794Y-10664857D02*
X13573984Y-10664857D01*
X13673984Y-10612476D02*
X13707318Y-10612476D01*
X13721603Y-10664857D02*
X13673984Y-10664857D01*
X13673984Y-10664857D02*
X13673984Y-10564857D01*
X13673984Y-10564857D02*
X13721603Y-10564857D01*
X18145518Y-7442962D02*
X18178851Y-7542962D01*
X18178851Y-7542962D02*
X18212184Y-7442962D01*
X18297899Y-7447724D02*
X18288375Y-7442962D01*
X18288375Y-7442962D02*
X18274089Y-7442962D01*
X18274089Y-7442962D02*
X18259804Y-7447724D01*
X18259804Y-7447724D02*
X18250280Y-7457248D01*
X18250280Y-7457248D02*
X18245518Y-7466771D01*
X18245518Y-7466771D02*
X18240756Y-7485819D01*
X18240756Y-7485819D02*
X18240756Y-7500105D01*
X18240756Y-7500105D02*
X18245518Y-7519152D01*
X18245518Y-7519152D02*
X18250280Y-7528676D01*
X18250280Y-7528676D02*
X18259804Y-7538200D01*
X18259804Y-7538200D02*
X18274089Y-7542962D01*
X18274089Y-7542962D02*
X18283613Y-7542962D01*
X18283613Y-7542962D02*
X18297899Y-7538200D01*
X18297899Y-7538200D02*
X18302661Y-7533438D01*
X18302661Y-7533438D02*
X18302661Y-7500105D01*
X18302661Y-7500105D02*
X18283613Y-7500105D01*
X18393137Y-7542962D02*
X18345518Y-7542962D01*
X18345518Y-7542962D02*
X18345518Y-7442962D01*
X13134119Y-9356522D02*
X13076976Y-9356522D01*
X13105547Y-9356522D02*
X13105547Y-9256522D01*
X13105547Y-9256522D02*
X13096023Y-9270808D01*
X13096023Y-9270808D02*
X13086500Y-9280331D01*
X13086500Y-9280331D02*
X13076976Y-9285093D01*
X13096811Y-11143742D02*
X13130144Y-11243742D01*
X13130144Y-11243742D02*
X13163478Y-11143742D01*
X13196811Y-11243742D02*
X13196811Y-11143742D01*
X13244430Y-11243742D02*
X13244430Y-11143742D01*
X13244430Y-11143742D02*
X13301573Y-11243742D01*
X13301573Y-11243742D02*
X13301573Y-11143742D01*
X15788575Y-9989855D02*
X15836194Y-9989855D01*
X15779051Y-10018427D02*
X15812384Y-9918427D01*
X15812384Y-9918427D02*
X15845718Y-10018427D01*
X15864765Y-9918427D02*
X15898099Y-10018427D01*
X15898099Y-10018427D02*
X15931432Y-9918427D01*
X15964765Y-10018427D02*
X15964765Y-9918427D01*
X15964765Y-9918427D02*
X15988575Y-9918427D01*
X15988575Y-9918427D02*
X16002861Y-9923189D01*
X16002861Y-9923189D02*
X16012384Y-9932713D01*
X16012384Y-9932713D02*
X16017146Y-9942236D01*
X16017146Y-9942236D02*
X16021908Y-9961284D01*
X16021908Y-9961284D02*
X16021908Y-9975570D01*
X16021908Y-9975570D02*
X16017146Y-9994617D01*
X16017146Y-9994617D02*
X16012384Y-10004141D01*
X16012384Y-10004141D02*
X16002861Y-10013665D01*
X16002861Y-10013665D02*
X15988575Y-10018427D01*
X15988575Y-10018427D02*
X15964765Y-10018427D01*
X16064765Y-10018427D02*
X16064765Y-9918427D01*
X16064765Y-9918427D02*
X16088575Y-9918427D01*
X16088575Y-9918427D02*
X16102861Y-9923189D01*
X16102861Y-9923189D02*
X16112384Y-9932713D01*
X16112384Y-9932713D02*
X16117146Y-9942236D01*
X16117146Y-9942236D02*
X16121908Y-9961284D01*
X16121908Y-9961284D02*
X16121908Y-9975570D01*
X16121908Y-9975570D02*
X16117146Y-9994617D01*
X16117146Y-9994617D02*
X16112384Y-10004141D01*
X16112384Y-10004141D02*
X16102861Y-10013665D01*
X16102861Y-10013665D02*
X16088575Y-10018427D01*
X16088575Y-10018427D02*
X16064765Y-10018427D01*
X16179051Y-9918427D02*
X16179051Y-9942236D01*
X16155242Y-9932713D02*
X16179051Y-9942236D01*
X16179051Y-9942236D02*
X16202861Y-9932713D01*
X16164765Y-9961284D02*
X16179051Y-9942236D01*
X16179051Y-9942236D02*
X16193337Y-9961284D01*
X16236194Y-9927951D02*
X16240956Y-9923189D01*
X16240956Y-9923189D02*
X16250480Y-9918427D01*
X16250480Y-9918427D02*
X16274289Y-9918427D01*
X16274289Y-9918427D02*
X16283813Y-9923189D01*
X16283813Y-9923189D02*
X16288575Y-9927951D01*
X16288575Y-9927951D02*
X16293337Y-9937475D01*
X16293337Y-9937475D02*
X16293337Y-9946998D01*
X16293337Y-9946998D02*
X16288575Y-9961284D01*
X16288575Y-9961284D02*
X16231432Y-10018427D01*
X16231432Y-10018427D02*
X16293337Y-10018427D01*
X14935371Y-11220250D02*
X14982990Y-11220250D01*
X14925847Y-11248822D02*
X14959180Y-11148822D01*
X14959180Y-11148822D02*
X14992513Y-11248822D01*
X15011561Y-11148822D02*
X15044894Y-11248822D01*
X15044894Y-11248822D02*
X15078228Y-11148822D01*
X15111561Y-11248822D02*
X15111561Y-11148822D01*
X15111561Y-11148822D02*
X15135371Y-11148822D01*
X15135371Y-11148822D02*
X15149656Y-11153584D01*
X15149656Y-11153584D02*
X15159180Y-11163108D01*
X15159180Y-11163108D02*
X15163942Y-11172631D01*
X15163942Y-11172631D02*
X15168704Y-11191679D01*
X15168704Y-11191679D02*
X15168704Y-11205965D01*
X15168704Y-11205965D02*
X15163942Y-11225012D01*
X15163942Y-11225012D02*
X15159180Y-11234536D01*
X15159180Y-11234536D02*
X15149656Y-11244060D01*
X15149656Y-11244060D02*
X15135371Y-11248822D01*
X15135371Y-11248822D02*
X15111561Y-11248822D01*
X15211561Y-11248822D02*
X15211561Y-11148822D01*
X15211561Y-11148822D02*
X15235371Y-11148822D01*
X15235371Y-11148822D02*
X15249656Y-11153584D01*
X15249656Y-11153584D02*
X15259180Y-11163108D01*
X15259180Y-11163108D02*
X15263942Y-11172631D01*
X15263942Y-11172631D02*
X15268704Y-11191679D01*
X15268704Y-11191679D02*
X15268704Y-11205965D01*
X15268704Y-11205965D02*
X15263942Y-11225012D01*
X15263942Y-11225012D02*
X15259180Y-11234536D01*
X15259180Y-11234536D02*
X15249656Y-11244060D01*
X15249656Y-11244060D02*
X15235371Y-11248822D01*
X15235371Y-11248822D02*
X15211561Y-11248822D01*
X14242351Y-10620502D02*
X14275684Y-10720502D01*
X14275684Y-10720502D02*
X14309018Y-10620502D01*
X14337589Y-10715740D02*
X14351875Y-10720502D01*
X14351875Y-10720502D02*
X14375684Y-10720502D01*
X14375684Y-10720502D02*
X14385208Y-10715740D01*
X14385208Y-10715740D02*
X14389970Y-10710978D01*
X14389970Y-10710978D02*
X14394732Y-10701454D01*
X14394732Y-10701454D02*
X14394732Y-10691930D01*
X14394732Y-10691930D02*
X14389970Y-10682407D01*
X14389970Y-10682407D02*
X14385208Y-10677645D01*
X14385208Y-10677645D02*
X14375684Y-10672883D01*
X14375684Y-10672883D02*
X14356637Y-10668121D01*
X14356637Y-10668121D02*
X14347113Y-10663359D01*
X14347113Y-10663359D02*
X14342351Y-10658597D01*
X14342351Y-10658597D02*
X14337589Y-10649073D01*
X14337589Y-10649073D02*
X14337589Y-10639550D01*
X14337589Y-10639550D02*
X14342351Y-10630026D01*
X14342351Y-10630026D02*
X14347113Y-10625264D01*
X14347113Y-10625264D02*
X14356637Y-10620502D01*
X14356637Y-10620502D02*
X14380446Y-10620502D01*
X14380446Y-10620502D02*
X14394732Y-10625264D01*
X14428065Y-10620502D02*
X14451875Y-10720502D01*
X14451875Y-10720502D02*
X14470922Y-10649073D01*
X14470922Y-10649073D02*
X14489970Y-10720502D01*
X14489970Y-10720502D02*
X14513780Y-10620502D01*
X15890175Y-9342155D02*
X15937794Y-9342155D01*
X15880651Y-9370727D02*
X15913984Y-9270727D01*
X15913984Y-9270727D02*
X15947318Y-9370727D01*
X15966365Y-9270727D02*
X15999699Y-9370727D01*
X15999699Y-9370727D02*
X16033032Y-9270727D01*
X16066365Y-9370727D02*
X16066365Y-9270727D01*
X16066365Y-9270727D02*
X16090175Y-9270727D01*
X16090175Y-9270727D02*
X16104461Y-9275489D01*
X16104461Y-9275489D02*
X16113984Y-9285013D01*
X16113984Y-9285013D02*
X16118746Y-9294536D01*
X16118746Y-9294536D02*
X16123508Y-9313584D01*
X16123508Y-9313584D02*
X16123508Y-9327870D01*
X16123508Y-9327870D02*
X16118746Y-9346917D01*
X16118746Y-9346917D02*
X16113984Y-9356441D01*
X16113984Y-9356441D02*
X16104461Y-9365965D01*
X16104461Y-9365965D02*
X16090175Y-9370727D01*
X16090175Y-9370727D02*
X16066365Y-9370727D01*
X16166365Y-9370727D02*
X16166365Y-9270727D01*
X16166365Y-9270727D02*
X16190175Y-9270727D01*
X16190175Y-9270727D02*
X16204461Y-9275489D01*
X16204461Y-9275489D02*
X16213984Y-9285013D01*
X16213984Y-9285013D02*
X16218746Y-9294536D01*
X16218746Y-9294536D02*
X16223508Y-9313584D01*
X16223508Y-9313584D02*
X16223508Y-9327870D01*
X16223508Y-9327870D02*
X16218746Y-9346917D01*
X16218746Y-9346917D02*
X16213984Y-9356441D01*
X16213984Y-9356441D02*
X16204461Y-9365965D01*
X16204461Y-9365965D02*
X16190175Y-9370727D01*
X16190175Y-9370727D02*
X16166365Y-9370727D01*
X16280651Y-9270727D02*
X16280651Y-9294536D01*
X16256842Y-9285013D02*
X16280651Y-9294536D01*
X16280651Y-9294536D02*
X16304461Y-9285013D01*
X16266365Y-9313584D02*
X16280651Y-9294536D01*
X16280651Y-9294536D02*
X16294937Y-9313584D01*
X16333032Y-9270727D02*
X16394937Y-9270727D01*
X16394937Y-9270727D02*
X16361603Y-9308822D01*
X16361603Y-9308822D02*
X16375889Y-9308822D01*
X16375889Y-9308822D02*
X16385413Y-9313584D01*
X16385413Y-9313584D02*
X16390175Y-9318346D01*
X16390175Y-9318346D02*
X16394937Y-9327870D01*
X16394937Y-9327870D02*
X16394937Y-9351679D01*
X16394937Y-9351679D02*
X16390175Y-9361203D01*
X16390175Y-9361203D02*
X16385413Y-9365965D01*
X16385413Y-9365965D02*
X16375889Y-9370727D01*
X16375889Y-9370727D02*
X16347318Y-9370727D01*
X16347318Y-9370727D02*
X16337794Y-9365965D01*
X16337794Y-9365965D02*
X16333032Y-9361203D01*
X18193137Y-6990524D02*
X18183613Y-6985762D01*
X18183613Y-6985762D02*
X18169327Y-6985762D01*
X18169327Y-6985762D02*
X18155042Y-6990524D01*
X18155042Y-6990524D02*
X18145518Y-7000048D01*
X18145518Y-7000048D02*
X18140756Y-7009571D01*
X18140756Y-7009571D02*
X18135994Y-7028619D01*
X18135994Y-7028619D02*
X18135994Y-7042905D01*
X18135994Y-7042905D02*
X18140756Y-7061952D01*
X18140756Y-7061952D02*
X18145518Y-7071476D01*
X18145518Y-7071476D02*
X18155042Y-7081000D01*
X18155042Y-7081000D02*
X18169327Y-7085762D01*
X18169327Y-7085762D02*
X18178851Y-7085762D01*
X18178851Y-7085762D02*
X18193137Y-7081000D01*
X18193137Y-7081000D02*
X18197899Y-7076238D01*
X18197899Y-7076238D02*
X18197899Y-7042905D01*
X18197899Y-7042905D02*
X18178851Y-7042905D01*
X18240756Y-7085762D02*
X18240756Y-6985762D01*
X18240756Y-6985762D02*
X18297899Y-7085762D01*
X18297899Y-7085762D02*
X18297899Y-6985762D01*
X18345518Y-7085762D02*
X18345518Y-6985762D01*
X18345518Y-6985762D02*
X18369327Y-6985762D01*
X18369327Y-6985762D02*
X18383613Y-6990524D01*
X18383613Y-6990524D02*
X18393137Y-7000048D01*
X18393137Y-7000048D02*
X18397899Y-7009571D01*
X18397899Y-7009571D02*
X18402661Y-7028619D01*
X18402661Y-7028619D02*
X18402661Y-7042905D01*
X18402661Y-7042905D02*
X18397899Y-7061952D01*
X18397899Y-7061952D02*
X18393137Y-7071476D01*
X18393137Y-7071476D02*
X18383613Y-7081000D01*
X18383613Y-7081000D02*
X18369327Y-7085762D01*
X18369327Y-7085762D02*
X18345518Y-7085762D01*
D11*
X16634951Y-9567942D02*
X16634951Y-9467942D01*
X16634951Y-9467942D02*
X16658761Y-9467942D01*
X16658761Y-9467942D02*
X16673047Y-9472704D01*
X16673047Y-9472704D02*
X16682570Y-9482228D01*
X16682570Y-9482228D02*
X16687332Y-9491751D01*
X16687332Y-9491751D02*
X16692094Y-9510799D01*
X16692094Y-9510799D02*
X16692094Y-9525085D01*
X16692094Y-9525085D02*
X16687332Y-9544132D01*
X16687332Y-9544132D02*
X16682570Y-9553656D01*
X16682570Y-9553656D02*
X16673047Y-9563180D01*
X16673047Y-9563180D02*
X16658761Y-9567942D01*
X16658761Y-9567942D02*
X16634951Y-9567942D01*
X16787332Y-9567942D02*
X16730189Y-9567942D01*
X16758761Y-9567942D02*
X16758761Y-9467942D01*
X16758761Y-9467942D02*
X16749237Y-9482228D01*
X16749237Y-9482228D02*
X16739713Y-9491751D01*
X16739713Y-9491751D02*
X16730189Y-9496513D01*
X16820666Y-9467942D02*
X16882570Y-9467942D01*
X16882570Y-9467942D02*
X16849237Y-9506037D01*
X16849237Y-9506037D02*
X16863523Y-9506037D01*
X16863523Y-9506037D02*
X16873047Y-9510799D01*
X16873047Y-9510799D02*
X16877809Y-9515561D01*
X16877809Y-9515561D02*
X16882570Y-9525085D01*
X16882570Y-9525085D02*
X16882570Y-9548894D01*
X16882570Y-9548894D02*
X16877809Y-9558418D01*
X16877809Y-9558418D02*
X16873047Y-9563180D01*
X16873047Y-9563180D02*
X16863523Y-9567942D01*
X16863523Y-9567942D02*
X16834951Y-9567942D01*
X16834951Y-9567942D02*
X16825428Y-9563180D01*
X16825428Y-9563180D02*
X16820666Y-9558418D01*
X13215767Y-9450162D02*
X13277671Y-9450162D01*
X13277671Y-9450162D02*
X13244338Y-9488257D01*
X13244338Y-9488257D02*
X13258624Y-9488257D01*
X13258624Y-9488257D02*
X13268148Y-9493019D01*
X13268148Y-9493019D02*
X13272909Y-9497781D01*
X13272909Y-9497781D02*
X13277671Y-9507305D01*
X13277671Y-9507305D02*
X13277671Y-9531114D01*
X13277671Y-9531114D02*
X13272909Y-9540638D01*
X13272909Y-9540638D02*
X13268148Y-9545400D01*
X13268148Y-9545400D02*
X13258624Y-9550162D01*
X13258624Y-9550162D02*
X13230052Y-9550162D01*
X13230052Y-9550162D02*
X13220529Y-9545400D01*
X13220529Y-9545400D02*
X13215767Y-9540638D01*
X12757671Y-9550162D02*
X12700529Y-9550162D01*
X12729100Y-9550162D02*
X12729100Y-9450162D01*
X12729100Y-9450162D02*
X12719576Y-9464448D01*
X12719576Y-9464448D02*
X12710052Y-9473971D01*
X12710052Y-9473971D02*
X12700529Y-9478733D01*
X16382687Y-8406222D02*
X16382687Y-8477650D01*
X16382687Y-8477650D02*
X16377925Y-8491936D01*
X16377925Y-8491936D02*
X16368401Y-8501460D01*
X16368401Y-8501460D02*
X16354115Y-8506222D01*
X16354115Y-8506222D02*
X16344591Y-8506222D01*
X16420782Y-8406222D02*
X16482687Y-8406222D01*
X16482687Y-8406222D02*
X16449353Y-8444317D01*
X16449353Y-8444317D02*
X16463639Y-8444317D01*
X16463639Y-8444317D02*
X16473163Y-8449079D01*
X16473163Y-8449079D02*
X16477925Y-8453841D01*
X16477925Y-8453841D02*
X16482687Y-8463365D01*
X16482687Y-8463365D02*
X16482687Y-8487174D01*
X16482687Y-8487174D02*
X16477925Y-8496698D01*
X16477925Y-8496698D02*
X16473163Y-8501460D01*
X16473163Y-8501460D02*
X16463639Y-8506222D01*
X16463639Y-8506222D02*
X16435068Y-8506222D01*
X16435068Y-8506222D02*
X16425544Y-8501460D01*
X16425544Y-8501460D02*
X16420782Y-8496698D01*
X14432804Y-11635248D02*
X14428042Y-11640010D01*
X14428042Y-11640010D02*
X14413757Y-11644772D01*
X14413757Y-11644772D02*
X14404233Y-11644772D01*
X14404233Y-11644772D02*
X14389947Y-11640010D01*
X14389947Y-11640010D02*
X14380423Y-11630486D01*
X14380423Y-11630486D02*
X14375661Y-11620962D01*
X14375661Y-11620962D02*
X14370899Y-11601915D01*
X14370899Y-11601915D02*
X14370899Y-11587629D01*
X14370899Y-11587629D02*
X14375661Y-11568581D01*
X14375661Y-11568581D02*
X14380423Y-11559058D01*
X14380423Y-11559058D02*
X14389947Y-11549534D01*
X14389947Y-11549534D02*
X14404233Y-11544772D01*
X14404233Y-11544772D02*
X14413757Y-11544772D01*
X14413757Y-11544772D02*
X14428042Y-11549534D01*
X14428042Y-11549534D02*
X14432804Y-11554296D01*
X14528042Y-11644772D02*
X14470899Y-11644772D01*
X14499471Y-11644772D02*
X14499471Y-11544772D01*
X14499471Y-11544772D02*
X14489947Y-11559058D01*
X14489947Y-11559058D02*
X14480423Y-11568581D01*
X14480423Y-11568581D02*
X14470899Y-11573343D01*
X14589947Y-11544772D02*
X14599471Y-11544772D01*
X14599471Y-11544772D02*
X14608995Y-11549534D01*
X14608995Y-11549534D02*
X14613757Y-11554296D01*
X14613757Y-11554296D02*
X14618518Y-11563819D01*
X14618518Y-11563819D02*
X14623280Y-11582867D01*
X14623280Y-11582867D02*
X14623280Y-11606677D01*
X14623280Y-11606677D02*
X14618518Y-11625724D01*
X14618518Y-11625724D02*
X14613757Y-11635248D01*
X14613757Y-11635248D02*
X14608995Y-11640010D01*
X14608995Y-11640010D02*
X14599471Y-11644772D01*
X14599471Y-11644772D02*
X14589947Y-11644772D01*
X14589947Y-11644772D02*
X14580423Y-11640010D01*
X14580423Y-11640010D02*
X14575661Y-11635248D01*
X14575661Y-11635248D02*
X14570899Y-11625724D01*
X14570899Y-11625724D02*
X14566138Y-11606677D01*
X14566138Y-11606677D02*
X14566138Y-11582867D01*
X14566138Y-11582867D02*
X14570899Y-11563819D01*
X14570899Y-11563819D02*
X14575661Y-11554296D01*
X14575661Y-11554296D02*
X14580423Y-11549534D01*
X14580423Y-11549534D02*
X14589947Y-11544772D01*
X17077533Y-10896998D02*
X17072771Y-10901760D01*
X17072771Y-10901760D02*
X17058486Y-10906522D01*
X17058486Y-10906522D02*
X17048962Y-10906522D01*
X17048962Y-10906522D02*
X17034676Y-10901760D01*
X17034676Y-10901760D02*
X17025152Y-10892236D01*
X17025152Y-10892236D02*
X17020391Y-10882712D01*
X17020391Y-10882712D02*
X17015629Y-10863665D01*
X17015629Y-10863665D02*
X17015629Y-10849379D01*
X17015629Y-10849379D02*
X17020391Y-10830331D01*
X17020391Y-10830331D02*
X17025152Y-10820808D01*
X17025152Y-10820808D02*
X17034676Y-10811284D01*
X17034676Y-10811284D02*
X17048962Y-10806522D01*
X17048962Y-10806522D02*
X17058486Y-10806522D01*
X17058486Y-10806522D02*
X17072771Y-10811284D01*
X17072771Y-10811284D02*
X17077533Y-10816046D01*
X17134676Y-10849379D02*
X17125152Y-10844617D01*
X17125152Y-10844617D02*
X17120391Y-10839855D01*
X17120391Y-10839855D02*
X17115629Y-10830331D01*
X17115629Y-10830331D02*
X17115629Y-10825570D01*
X17115629Y-10825570D02*
X17120391Y-10816046D01*
X17120391Y-10816046D02*
X17125152Y-10811284D01*
X17125152Y-10811284D02*
X17134676Y-10806522D01*
X17134676Y-10806522D02*
X17153724Y-10806522D01*
X17153724Y-10806522D02*
X17163248Y-10811284D01*
X17163248Y-10811284D02*
X17168010Y-10816046D01*
X17168010Y-10816046D02*
X17172771Y-10825570D01*
X17172771Y-10825570D02*
X17172771Y-10830331D01*
X17172771Y-10830331D02*
X17168010Y-10839855D01*
X17168010Y-10839855D02*
X17163248Y-10844617D01*
X17163248Y-10844617D02*
X17153724Y-10849379D01*
X17153724Y-10849379D02*
X17134676Y-10849379D01*
X17134676Y-10849379D02*
X17125152Y-10854141D01*
X17125152Y-10854141D02*
X17120391Y-10858903D01*
X17120391Y-10858903D02*
X17115629Y-10868427D01*
X17115629Y-10868427D02*
X17115629Y-10887474D01*
X17115629Y-10887474D02*
X17120391Y-10896998D01*
X17120391Y-10896998D02*
X17125152Y-10901760D01*
X17125152Y-10901760D02*
X17134676Y-10906522D01*
X17134676Y-10906522D02*
X17153724Y-10906522D01*
X17153724Y-10906522D02*
X17163248Y-10901760D01*
X17163248Y-10901760D02*
X17168010Y-10896998D01*
X17168010Y-10896998D02*
X17172771Y-10887474D01*
X17172771Y-10887474D02*
X17172771Y-10868427D01*
X17172771Y-10868427D02*
X17168010Y-10858903D01*
X17168010Y-10858903D02*
X17163248Y-10854141D01*
X17163248Y-10854141D02*
X17153724Y-10849379D01*
X17777951Y-9547622D02*
X17777951Y-9447622D01*
X17777951Y-9447622D02*
X17801761Y-9447622D01*
X17801761Y-9447622D02*
X17816047Y-9452384D01*
X17816047Y-9452384D02*
X17825570Y-9461908D01*
X17825570Y-9461908D02*
X17830332Y-9471431D01*
X17830332Y-9471431D02*
X17835094Y-9490479D01*
X17835094Y-9490479D02*
X17835094Y-9504765D01*
X17835094Y-9504765D02*
X17830332Y-9523812D01*
X17830332Y-9523812D02*
X17825570Y-9533336D01*
X17825570Y-9533336D02*
X17816047Y-9542860D01*
X17816047Y-9542860D02*
X17801761Y-9547622D01*
X17801761Y-9547622D02*
X17777951Y-9547622D01*
X17930332Y-9547622D02*
X17873190Y-9547622D01*
X17901761Y-9547622D02*
X17901761Y-9447622D01*
X17901761Y-9447622D02*
X17892237Y-9461908D01*
X17892237Y-9461908D02*
X17882713Y-9471431D01*
X17882713Y-9471431D02*
X17873190Y-9476193D01*
X17968428Y-9457146D02*
X17973190Y-9452384D01*
X17973190Y-9452384D02*
X17982713Y-9447622D01*
X17982713Y-9447622D02*
X18006523Y-9447622D01*
X18006523Y-9447622D02*
X18016047Y-9452384D01*
X18016047Y-9452384D02*
X18020809Y-9457146D01*
X18020809Y-9457146D02*
X18025570Y-9466670D01*
X18025570Y-9466670D02*
X18025570Y-9476193D01*
X18025570Y-9476193D02*
X18020809Y-9490479D01*
X18020809Y-9490479D02*
X17963666Y-9547622D01*
X17963666Y-9547622D02*
X18025570Y-9547622D01*
X15424063Y-12177052D02*
X15390730Y-12129433D01*
X15366920Y-12177052D02*
X15366920Y-12077052D01*
X15366920Y-12077052D02*
X15405016Y-12077052D01*
X15405016Y-12077052D02*
X15414539Y-12081814D01*
X15414539Y-12081814D02*
X15419301Y-12086576D01*
X15419301Y-12086576D02*
X15424063Y-12096099D01*
X15424063Y-12096099D02*
X15424063Y-12110385D01*
X15424063Y-12110385D02*
X15419301Y-12119909D01*
X15419301Y-12119909D02*
X15414539Y-12124671D01*
X15414539Y-12124671D02*
X15405016Y-12129433D01*
X15405016Y-12129433D02*
X15366920Y-12129433D01*
X15457397Y-12077052D02*
X15519301Y-12077052D01*
X15519301Y-12077052D02*
X15485968Y-12115147D01*
X15485968Y-12115147D02*
X15500254Y-12115147D01*
X15500254Y-12115147D02*
X15509778Y-12119909D01*
X15509778Y-12119909D02*
X15514539Y-12124671D01*
X15514539Y-12124671D02*
X15519301Y-12134195D01*
X15519301Y-12134195D02*
X15519301Y-12158004D01*
X15519301Y-12158004D02*
X15514539Y-12167528D01*
X15514539Y-12167528D02*
X15509778Y-12172290D01*
X15509778Y-12172290D02*
X15500254Y-12177052D01*
X15500254Y-12177052D02*
X15471682Y-12177052D01*
X15471682Y-12177052D02*
X15462159Y-12172290D01*
X15462159Y-12172290D02*
X15457397Y-12167528D01*
X15682509Y-11921692D02*
X15682509Y-12002644D01*
X15682509Y-12002644D02*
X15687271Y-12012168D01*
X15687271Y-12012168D02*
X15692033Y-12016930D01*
X15692033Y-12016930D02*
X15701557Y-12021692D01*
X15701557Y-12021692D02*
X15720605Y-12021692D01*
X15720605Y-12021692D02*
X15730128Y-12016930D01*
X15730128Y-12016930D02*
X15734890Y-12012168D01*
X15734890Y-12012168D02*
X15739652Y-12002644D01*
X15739652Y-12002644D02*
X15739652Y-11921692D01*
X15782509Y-11931216D02*
X15787271Y-11926454D01*
X15787271Y-11926454D02*
X15796795Y-11921692D01*
X15796795Y-11921692D02*
X15820605Y-11921692D01*
X15820605Y-11921692D02*
X15830128Y-11926454D01*
X15830128Y-11926454D02*
X15834890Y-11931216D01*
X15834890Y-11931216D02*
X15839652Y-11940739D01*
X15839652Y-11940739D02*
X15839652Y-11950263D01*
X15839652Y-11950263D02*
X15834890Y-11964549D01*
X15834890Y-11964549D02*
X15777748Y-12021692D01*
X15777748Y-12021692D02*
X15839652Y-12021692D01*
X16756230Y-10190242D02*
X16756230Y-10090242D01*
X16756230Y-10090242D02*
X16780040Y-10090242D01*
X16780040Y-10090242D02*
X16794326Y-10095004D01*
X16794326Y-10095004D02*
X16803850Y-10104528D01*
X16803850Y-10104528D02*
X16808611Y-10114051D01*
X16808611Y-10114051D02*
X16813373Y-10133099D01*
X16813373Y-10133099D02*
X16813373Y-10147385D01*
X16813373Y-10147385D02*
X16808611Y-10166432D01*
X16808611Y-10166432D02*
X16803850Y-10175956D01*
X16803850Y-10175956D02*
X16794326Y-10185480D01*
X16794326Y-10185480D02*
X16780040Y-10190242D01*
X16780040Y-10190242D02*
X16756230Y-10190242D01*
X16899088Y-10123575D02*
X16899088Y-10190242D01*
X16875278Y-10085480D02*
X16851469Y-10156909D01*
X16851469Y-10156909D02*
X16913373Y-10156909D01*
X14657554Y-11156078D02*
X14652792Y-11160840D01*
X14652792Y-11160840D02*
X14638507Y-11165602D01*
X14638507Y-11165602D02*
X14628983Y-11165602D01*
X14628983Y-11165602D02*
X14614697Y-11160840D01*
X14614697Y-11160840D02*
X14605173Y-11151316D01*
X14605173Y-11151316D02*
X14600411Y-11141792D01*
X14600411Y-11141792D02*
X14595649Y-11122745D01*
X14595649Y-11122745D02*
X14595649Y-11108459D01*
X14595649Y-11108459D02*
X14600411Y-11089411D01*
X14600411Y-11089411D02*
X14605173Y-11079888D01*
X14605173Y-11079888D02*
X14614697Y-11070364D01*
X14614697Y-11070364D02*
X14628983Y-11065602D01*
X14628983Y-11065602D02*
X14638507Y-11065602D01*
X14638507Y-11065602D02*
X14652792Y-11070364D01*
X14652792Y-11070364D02*
X14657554Y-11075126D01*
X14752792Y-11165602D02*
X14695649Y-11165602D01*
X14724221Y-11165602D02*
X14724221Y-11065602D01*
X14724221Y-11065602D02*
X14714697Y-11079888D01*
X14714697Y-11079888D02*
X14705173Y-11089411D01*
X14705173Y-11089411D02*
X14695649Y-11094173D01*
X14786126Y-11065602D02*
X14848030Y-11065602D01*
X14848030Y-11065602D02*
X14814697Y-11103697D01*
X14814697Y-11103697D02*
X14828983Y-11103697D01*
X14828983Y-11103697D02*
X14838507Y-11108459D01*
X14838507Y-11108459D02*
X14843268Y-11113221D01*
X14843268Y-11113221D02*
X14848030Y-11122745D01*
X14848030Y-11122745D02*
X14848030Y-11146554D01*
X14848030Y-11146554D02*
X14843268Y-11156078D01*
X14843268Y-11156078D02*
X14838507Y-11160840D01*
X14838507Y-11160840D02*
X14828983Y-11165602D01*
X14828983Y-11165602D02*
X14800411Y-11165602D01*
X14800411Y-11165602D02*
X14790888Y-11160840D01*
X14790888Y-11160840D02*
X14786126Y-11156078D01*
X12757671Y-10284222D02*
X12700529Y-10284222D01*
X12729100Y-10284222D02*
X12729100Y-10184222D01*
X12729100Y-10184222D02*
X12719576Y-10198508D01*
X12719576Y-10198508D02*
X12710052Y-10208031D01*
X12710052Y-10208031D02*
X12700529Y-10212793D01*
X13215767Y-10184222D02*
X13277671Y-10184222D01*
X13277671Y-10184222D02*
X13244338Y-10222317D01*
X13244338Y-10222317D02*
X13258624Y-10222317D01*
X13258624Y-10222317D02*
X13268148Y-10227079D01*
X13268148Y-10227079D02*
X13272909Y-10231841D01*
X13272909Y-10231841D02*
X13277671Y-10241365D01*
X13277671Y-10241365D02*
X13277671Y-10265174D01*
X13277671Y-10265174D02*
X13272909Y-10274698D01*
X13272909Y-10274698D02*
X13268148Y-10279460D01*
X13268148Y-10279460D02*
X13258624Y-10284222D01*
X13258624Y-10284222D02*
X13230052Y-10284222D01*
X13230052Y-10284222D02*
X13220529Y-10279460D01*
X13220529Y-10279460D02*
X13215767Y-10274698D01*
X15424063Y-11847699D02*
X15390730Y-11800079D01*
X15366920Y-11847699D02*
X15366920Y-11747699D01*
X15366920Y-11747699D02*
X15405016Y-11747699D01*
X15405016Y-11747699D02*
X15414539Y-11752460D01*
X15414539Y-11752460D02*
X15419301Y-11757222D01*
X15419301Y-11757222D02*
X15424063Y-11766746D01*
X15424063Y-11766746D02*
X15424063Y-11781032D01*
X15424063Y-11781032D02*
X15419301Y-11790556D01*
X15419301Y-11790556D02*
X15414539Y-11795318D01*
X15414539Y-11795318D02*
X15405016Y-11800079D01*
X15405016Y-11800079D02*
X15366920Y-11800079D01*
X15514539Y-11747699D02*
X15466920Y-11747699D01*
X15466920Y-11747699D02*
X15462159Y-11795318D01*
X15462159Y-11795318D02*
X15466920Y-11790556D01*
X15466920Y-11790556D02*
X15476444Y-11785794D01*
X15476444Y-11785794D02*
X15500254Y-11785794D01*
X15500254Y-11785794D02*
X15509778Y-11790556D01*
X15509778Y-11790556D02*
X15514539Y-11795318D01*
X15514539Y-11795318D02*
X15519301Y-11804841D01*
X15519301Y-11804841D02*
X15519301Y-11828651D01*
X15519301Y-11828651D02*
X15514539Y-11838175D01*
X15514539Y-11838175D02*
X15509778Y-11842937D01*
X15509778Y-11842937D02*
X15500254Y-11847699D01*
X15500254Y-11847699D02*
X15476444Y-11847699D01*
X15476444Y-11847699D02*
X15466920Y-11842937D01*
X15466920Y-11842937D02*
X15462159Y-11838175D01*
X12757671Y-9917192D02*
X12700529Y-9917192D01*
X12729100Y-9917192D02*
X12729100Y-9817192D01*
X12729100Y-9817192D02*
X12719576Y-9831478D01*
X12719576Y-9831478D02*
X12710052Y-9841001D01*
X12710052Y-9841001D02*
X12700529Y-9845763D01*
X13215767Y-9817192D02*
X13277671Y-9817192D01*
X13277671Y-9817192D02*
X13244338Y-9855287D01*
X13244338Y-9855287D02*
X13258624Y-9855287D01*
X13258624Y-9855287D02*
X13268148Y-9860049D01*
X13268148Y-9860049D02*
X13272909Y-9864811D01*
X13272909Y-9864811D02*
X13277671Y-9874335D01*
X13277671Y-9874335D02*
X13277671Y-9898144D01*
X13277671Y-9898144D02*
X13272909Y-9907668D01*
X13272909Y-9907668D02*
X13268148Y-9912430D01*
X13268148Y-9912430D02*
X13258624Y-9917192D01*
X13258624Y-9917192D02*
X13230052Y-9917192D01*
X13230052Y-9917192D02*
X13220529Y-9912430D01*
X13220529Y-9912430D02*
X13215767Y-9907668D01*
X14173050Y-11155442D02*
X14173050Y-11055442D01*
X14173050Y-11055442D02*
X14196860Y-11055442D01*
X14196860Y-11055442D02*
X14211146Y-11060204D01*
X14211146Y-11060204D02*
X14220669Y-11069728D01*
X14220669Y-11069728D02*
X14225431Y-11079251D01*
X14225431Y-11079251D02*
X14230193Y-11098299D01*
X14230193Y-11098299D02*
X14230193Y-11112585D01*
X14230193Y-11112585D02*
X14225431Y-11131632D01*
X14225431Y-11131632D02*
X14220669Y-11141156D01*
X14220669Y-11141156D02*
X14211146Y-11150680D01*
X14211146Y-11150680D02*
X14196860Y-11155442D01*
X14196860Y-11155442D02*
X14173050Y-11155442D01*
X14263527Y-11055442D02*
X14325431Y-11055442D01*
X14325431Y-11055442D02*
X14292098Y-11093537D01*
X14292098Y-11093537D02*
X14306384Y-11093537D01*
X14306384Y-11093537D02*
X14315908Y-11098299D01*
X14315908Y-11098299D02*
X14320669Y-11103061D01*
X14320669Y-11103061D02*
X14325431Y-11112585D01*
X14325431Y-11112585D02*
X14325431Y-11136394D01*
X14325431Y-11136394D02*
X14320669Y-11145918D01*
X14320669Y-11145918D02*
X14315908Y-11150680D01*
X14315908Y-11150680D02*
X14306384Y-11155442D01*
X14306384Y-11155442D02*
X14277812Y-11155442D01*
X14277812Y-11155442D02*
X14268289Y-11150680D01*
X14268289Y-11150680D02*
X14263527Y-11145918D01*
X16488240Y-10911712D02*
X16488240Y-10811712D01*
X16488240Y-10811712D02*
X16512050Y-10811712D01*
X16512050Y-10811712D02*
X16526336Y-10816474D01*
X16526336Y-10816474D02*
X16535859Y-10825998D01*
X16535859Y-10825998D02*
X16540621Y-10835521D01*
X16540621Y-10835521D02*
X16545383Y-10854569D01*
X16545383Y-10854569D02*
X16545383Y-10868855D01*
X16545383Y-10868855D02*
X16540621Y-10887902D01*
X16540621Y-10887902D02*
X16535859Y-10897426D01*
X16535859Y-10897426D02*
X16526336Y-10906950D01*
X16526336Y-10906950D02*
X16512050Y-10911712D01*
X16512050Y-10911712D02*
X16488240Y-10911712D01*
X16635859Y-10811712D02*
X16588240Y-10811712D01*
X16588240Y-10811712D02*
X16583479Y-10859331D01*
X16583479Y-10859331D02*
X16588240Y-10854569D01*
X16588240Y-10854569D02*
X16597764Y-10849807D01*
X16597764Y-10849807D02*
X16621574Y-10849807D01*
X16621574Y-10849807D02*
X16631098Y-10854569D01*
X16631098Y-10854569D02*
X16635859Y-10859331D01*
X16635859Y-10859331D02*
X16640621Y-10868855D01*
X16640621Y-10868855D02*
X16640621Y-10892664D01*
X16640621Y-10892664D02*
X16635859Y-10902188D01*
X16635859Y-10902188D02*
X16631098Y-10906950D01*
X16631098Y-10906950D02*
X16621574Y-10911712D01*
X16621574Y-10911712D02*
X16597764Y-10911712D01*
X16597764Y-10911712D02*
X16588240Y-10906950D01*
X16588240Y-10906950D02*
X16583479Y-10902188D01*
X11628847Y-8396062D02*
X11628847Y-8467490D01*
X11628847Y-8467490D02*
X11624085Y-8481776D01*
X11624085Y-8481776D02*
X11614561Y-8491300D01*
X11614561Y-8491300D02*
X11600275Y-8496062D01*
X11600275Y-8496062D02*
X11590751Y-8496062D01*
X11671704Y-8405586D02*
X11676466Y-8400824D01*
X11676466Y-8400824D02*
X11685989Y-8396062D01*
X11685989Y-8396062D02*
X11709799Y-8396062D01*
X11709799Y-8396062D02*
X11719323Y-8400824D01*
X11719323Y-8400824D02*
X11724085Y-8405586D01*
X11724085Y-8405586D02*
X11728847Y-8415110D01*
X11728847Y-8415110D02*
X11728847Y-8424633D01*
X11728847Y-8424633D02*
X11724085Y-8438919D01*
X11724085Y-8438919D02*
X11666942Y-8496062D01*
X11666942Y-8496062D02*
X11728847Y-8496062D01*
X17856836Y-9185806D02*
X17847312Y-9181044D01*
X17847312Y-9181044D02*
X17837789Y-9171520D01*
X17837789Y-9171520D02*
X17823503Y-9157234D01*
X17823503Y-9157234D02*
X17813979Y-9152472D01*
X17813979Y-9152472D02*
X17804455Y-9152472D01*
X17809217Y-9176282D02*
X17799693Y-9171520D01*
X17799693Y-9171520D02*
X17790170Y-9161996D01*
X17790170Y-9161996D02*
X17785408Y-9142949D01*
X17785408Y-9142949D02*
X17785408Y-9109615D01*
X17785408Y-9109615D02*
X17790170Y-9090568D01*
X17790170Y-9090568D02*
X17799693Y-9081044D01*
X17799693Y-9081044D02*
X17809217Y-9076282D01*
X17809217Y-9076282D02*
X17828265Y-9076282D01*
X17828265Y-9076282D02*
X17837789Y-9081044D01*
X17837789Y-9081044D02*
X17847312Y-9090568D01*
X17847312Y-9090568D02*
X17852074Y-9109615D01*
X17852074Y-9109615D02*
X17852074Y-9142949D01*
X17852074Y-9142949D02*
X17847312Y-9161996D01*
X17847312Y-9161996D02*
X17837789Y-9171520D01*
X17837789Y-9171520D02*
X17828265Y-9176282D01*
X17828265Y-9176282D02*
X17809217Y-9176282D01*
X17947312Y-9176282D02*
X17890170Y-9176282D01*
X17918741Y-9176282D02*
X17918741Y-9076282D01*
X17918741Y-9076282D02*
X17909217Y-9090568D01*
X17909217Y-9090568D02*
X17899693Y-9100091D01*
X17899693Y-9100091D02*
X17890170Y-9104853D01*
X12757671Y-11018282D02*
X12700529Y-11018282D01*
X12729100Y-11018282D02*
X12729100Y-10918282D01*
X12729100Y-10918282D02*
X12719576Y-10932568D01*
X12719576Y-10932568D02*
X12710052Y-10942091D01*
X12710052Y-10942091D02*
X12700529Y-10946853D01*
X13215767Y-10918282D02*
X13277671Y-10918282D01*
X13277671Y-10918282D02*
X13244338Y-10956377D01*
X13244338Y-10956377D02*
X13258624Y-10956377D01*
X13258624Y-10956377D02*
X13268148Y-10961139D01*
X13268148Y-10961139D02*
X13272909Y-10965901D01*
X13272909Y-10965901D02*
X13277671Y-10975425D01*
X13277671Y-10975425D02*
X13277671Y-10999234D01*
X13277671Y-10999234D02*
X13272909Y-11008758D01*
X13272909Y-11008758D02*
X13268148Y-11013520D01*
X13268148Y-11013520D02*
X13258624Y-11018282D01*
X13258624Y-11018282D02*
X13230052Y-11018282D01*
X13230052Y-11018282D02*
X13220529Y-11013520D01*
X13220529Y-11013520D02*
X13215767Y-11008758D01*
X15424063Y-11679212D02*
X15390730Y-11631593D01*
X15366920Y-11679212D02*
X15366920Y-11579212D01*
X15366920Y-11579212D02*
X15405016Y-11579212D01*
X15405016Y-11579212D02*
X15414539Y-11583974D01*
X15414539Y-11583974D02*
X15419301Y-11588736D01*
X15419301Y-11588736D02*
X15424063Y-11598259D01*
X15424063Y-11598259D02*
X15424063Y-11612545D01*
X15424063Y-11612545D02*
X15419301Y-11622069D01*
X15419301Y-11622069D02*
X15414539Y-11626831D01*
X15414539Y-11626831D02*
X15405016Y-11631593D01*
X15405016Y-11631593D02*
X15366920Y-11631593D01*
X15509778Y-11612545D02*
X15509778Y-11679212D01*
X15485968Y-11574450D02*
X15462159Y-11645878D01*
X15462159Y-11645878D02*
X15524063Y-11645878D01*
X13948253Y-11076702D02*
X13914920Y-11029083D01*
X13891110Y-11076702D02*
X13891110Y-10976702D01*
X13891110Y-10976702D02*
X13929206Y-10976702D01*
X13929206Y-10976702D02*
X13938729Y-10981464D01*
X13938729Y-10981464D02*
X13943491Y-10986226D01*
X13943491Y-10986226D02*
X13948253Y-10995750D01*
X13948253Y-10995750D02*
X13948253Y-11010035D01*
X13948253Y-11010035D02*
X13943491Y-11019559D01*
X13943491Y-11019559D02*
X13938729Y-11024321D01*
X13938729Y-11024321D02*
X13929206Y-11029083D01*
X13929206Y-11029083D02*
X13891110Y-11029083D01*
X13986349Y-10986226D02*
X13991110Y-10981464D01*
X13991110Y-10981464D02*
X14000634Y-10976702D01*
X14000634Y-10976702D02*
X14024444Y-10976702D01*
X14024444Y-10976702D02*
X14033968Y-10981464D01*
X14033968Y-10981464D02*
X14038729Y-10986226D01*
X14038729Y-10986226D02*
X14043491Y-10995750D01*
X14043491Y-10995750D02*
X14043491Y-11005273D01*
X14043491Y-11005273D02*
X14038729Y-11019559D01*
X14038729Y-11019559D02*
X13981587Y-11076702D01*
X13981587Y-11076702D02*
X14043491Y-11076702D01*
X13620593Y-12303128D02*
X13615831Y-12307890D01*
X13615831Y-12307890D02*
X13601546Y-12312652D01*
X13601546Y-12312652D02*
X13592022Y-12312652D01*
X13592022Y-12312652D02*
X13577736Y-12307890D01*
X13577736Y-12307890D02*
X13568212Y-12298366D01*
X13568212Y-12298366D02*
X13563450Y-12288842D01*
X13563450Y-12288842D02*
X13558689Y-12269795D01*
X13558689Y-12269795D02*
X13558689Y-12255509D01*
X13558689Y-12255509D02*
X13563450Y-12236461D01*
X13563450Y-12236461D02*
X13568212Y-12226938D01*
X13568212Y-12226938D02*
X13577736Y-12217414D01*
X13577736Y-12217414D02*
X13592022Y-12212652D01*
X13592022Y-12212652D02*
X13601546Y-12212652D01*
X13601546Y-12212652D02*
X13615831Y-12217414D01*
X13615831Y-12217414D02*
X13620593Y-12222176D01*
X13711069Y-12212652D02*
X13663450Y-12212652D01*
X13663450Y-12212652D02*
X13658689Y-12260271D01*
X13658689Y-12260271D02*
X13663450Y-12255509D01*
X13663450Y-12255509D02*
X13672974Y-12250747D01*
X13672974Y-12250747D02*
X13696784Y-12250747D01*
X13696784Y-12250747D02*
X13706308Y-12255509D01*
X13706308Y-12255509D02*
X13711069Y-12260271D01*
X13711069Y-12260271D02*
X13715831Y-12269795D01*
X13715831Y-12269795D02*
X13715831Y-12293604D01*
X13715831Y-12293604D02*
X13711069Y-12303128D01*
X13711069Y-12303128D02*
X13706308Y-12307890D01*
X13706308Y-12307890D02*
X13696784Y-12312652D01*
X13696784Y-12312652D02*
X13672974Y-12312652D01*
X13672974Y-12312652D02*
X13663450Y-12307890D01*
X13663450Y-12307890D02*
X13658689Y-12303128D01*
X13704413Y-11188462D02*
X13656794Y-11188462D01*
X13656794Y-11188462D02*
X13656794Y-11088462D01*
X13790128Y-11188462D02*
X13732985Y-11188462D01*
X13761556Y-11188462D02*
X13761556Y-11088462D01*
X13761556Y-11088462D02*
X13752032Y-11102748D01*
X13752032Y-11102748D02*
X13742509Y-11112271D01*
X13742509Y-11112271D02*
X13732985Y-11117033D01*
X14458229Y-12086812D02*
X14458229Y-12167764D01*
X14458229Y-12167764D02*
X14462991Y-12177288D01*
X14462991Y-12177288D02*
X14467753Y-12182050D01*
X14467753Y-12182050D02*
X14477277Y-12186812D01*
X14477277Y-12186812D02*
X14496325Y-12186812D01*
X14496325Y-12186812D02*
X14505848Y-12182050D01*
X14505848Y-12182050D02*
X14510610Y-12177288D01*
X14510610Y-12177288D02*
X14515372Y-12167764D01*
X14515372Y-12167764D02*
X14515372Y-12086812D01*
X14615372Y-12186812D02*
X14558229Y-12186812D01*
X14586801Y-12186812D02*
X14586801Y-12086812D01*
X14586801Y-12086812D02*
X14577277Y-12101098D01*
X14577277Y-12101098D02*
X14567753Y-12110621D01*
X14567753Y-12110621D02*
X14558229Y-12115383D01*
X15993493Y-12326382D02*
X15960160Y-12278763D01*
X15936350Y-12326382D02*
X15936350Y-12226382D01*
X15936350Y-12226382D02*
X15974446Y-12226382D01*
X15974446Y-12226382D02*
X15983969Y-12231144D01*
X15983969Y-12231144D02*
X15988731Y-12235906D01*
X15988731Y-12235906D02*
X15993493Y-12245429D01*
X15993493Y-12245429D02*
X15993493Y-12259715D01*
X15993493Y-12259715D02*
X15988731Y-12269239D01*
X15988731Y-12269239D02*
X15983969Y-12274001D01*
X15983969Y-12274001D02*
X15974446Y-12278763D01*
X15974446Y-12278763D02*
X15936350Y-12278763D01*
X16050636Y-12269239D02*
X16041112Y-12264477D01*
X16041112Y-12264477D02*
X16036350Y-12259715D01*
X16036350Y-12259715D02*
X16031589Y-12250191D01*
X16031589Y-12250191D02*
X16031589Y-12245429D01*
X16031589Y-12245429D02*
X16036350Y-12235906D01*
X16036350Y-12235906D02*
X16041112Y-12231144D01*
X16041112Y-12231144D02*
X16050636Y-12226382D01*
X16050636Y-12226382D02*
X16069684Y-12226382D01*
X16069684Y-12226382D02*
X16079208Y-12231144D01*
X16079208Y-12231144D02*
X16083969Y-12235906D01*
X16083969Y-12235906D02*
X16088731Y-12245429D01*
X16088731Y-12245429D02*
X16088731Y-12250191D01*
X16088731Y-12250191D02*
X16083969Y-12259715D01*
X16083969Y-12259715D02*
X16079208Y-12264477D01*
X16079208Y-12264477D02*
X16069684Y-12269239D01*
X16069684Y-12269239D02*
X16050636Y-12269239D01*
X16050636Y-12269239D02*
X16041112Y-12274001D01*
X16041112Y-12274001D02*
X16036350Y-12278763D01*
X16036350Y-12278763D02*
X16031589Y-12288287D01*
X16031589Y-12288287D02*
X16031589Y-12307334D01*
X16031589Y-12307334D02*
X16036350Y-12316858D01*
X16036350Y-12316858D02*
X16041112Y-12321620D01*
X16041112Y-12321620D02*
X16050636Y-12326382D01*
X16050636Y-12326382D02*
X16069684Y-12326382D01*
X16069684Y-12326382D02*
X16079208Y-12321620D01*
X16079208Y-12321620D02*
X16083969Y-12316858D01*
X16083969Y-12316858D02*
X16088731Y-12307334D01*
X16088731Y-12307334D02*
X16088731Y-12288287D01*
X16088731Y-12288287D02*
X16083969Y-12278763D01*
X16083969Y-12278763D02*
X16079208Y-12274001D01*
X16079208Y-12274001D02*
X16069684Y-12269239D01*
X16150433Y-10519188D02*
X16145671Y-10523950D01*
X16145671Y-10523950D02*
X16131386Y-10528712D01*
X16131386Y-10528712D02*
X16121862Y-10528712D01*
X16121862Y-10528712D02*
X16107576Y-10523950D01*
X16107576Y-10523950D02*
X16098052Y-10514426D01*
X16098052Y-10514426D02*
X16093290Y-10504902D01*
X16093290Y-10504902D02*
X16088529Y-10485855D01*
X16088529Y-10485855D02*
X16088529Y-10471569D01*
X16088529Y-10471569D02*
X16093290Y-10452521D01*
X16093290Y-10452521D02*
X16098052Y-10442998D01*
X16098052Y-10442998D02*
X16107576Y-10433474D01*
X16107576Y-10433474D02*
X16121862Y-10428712D01*
X16121862Y-10428712D02*
X16131386Y-10428712D01*
X16131386Y-10428712D02*
X16145671Y-10433474D01*
X16145671Y-10433474D02*
X16150433Y-10438236D01*
X16198052Y-10528712D02*
X16217100Y-10528712D01*
X16217100Y-10528712D02*
X16226624Y-10523950D01*
X16226624Y-10523950D02*
X16231386Y-10519188D01*
X16231386Y-10519188D02*
X16240909Y-10504902D01*
X16240909Y-10504902D02*
X16245671Y-10485855D01*
X16245671Y-10485855D02*
X16245671Y-10447760D01*
X16245671Y-10447760D02*
X16240909Y-10438236D01*
X16240909Y-10438236D02*
X16236148Y-10433474D01*
X16236148Y-10433474D02*
X16226624Y-10428712D01*
X16226624Y-10428712D02*
X16207576Y-10428712D01*
X16207576Y-10428712D02*
X16198052Y-10433474D01*
X16198052Y-10433474D02*
X16193290Y-10438236D01*
X16193290Y-10438236D02*
X16188529Y-10447760D01*
X16188529Y-10447760D02*
X16188529Y-10471569D01*
X16188529Y-10471569D02*
X16193290Y-10481093D01*
X16193290Y-10481093D02*
X16198052Y-10485855D01*
X16198052Y-10485855D02*
X16207576Y-10490617D01*
X16207576Y-10490617D02*
X16226624Y-10490617D01*
X16226624Y-10490617D02*
X16236148Y-10485855D01*
X16236148Y-10485855D02*
X16240909Y-10481093D01*
X16240909Y-10481093D02*
X16245671Y-10471569D01*
X17759531Y-10318422D02*
X17759531Y-10218422D01*
X17759531Y-10218422D02*
X17783340Y-10218422D01*
X17783340Y-10218422D02*
X17797626Y-10223184D01*
X17797626Y-10223184D02*
X17807150Y-10232708D01*
X17807150Y-10232708D02*
X17811911Y-10242231D01*
X17811911Y-10242231D02*
X17816673Y-10261279D01*
X17816673Y-10261279D02*
X17816673Y-10275565D01*
X17816673Y-10275565D02*
X17811911Y-10294612D01*
X17811911Y-10294612D02*
X17807150Y-10304136D01*
X17807150Y-10304136D02*
X17797626Y-10313660D01*
X17797626Y-10313660D02*
X17783340Y-10318422D01*
X17783340Y-10318422D02*
X17759531Y-10318422D01*
X17854769Y-10227946D02*
X17859531Y-10223184D01*
X17859531Y-10223184D02*
X17869054Y-10218422D01*
X17869054Y-10218422D02*
X17892864Y-10218422D01*
X17892864Y-10218422D02*
X17902388Y-10223184D01*
X17902388Y-10223184D02*
X17907150Y-10227946D01*
X17907150Y-10227946D02*
X17911911Y-10237470D01*
X17911911Y-10237470D02*
X17911911Y-10246993D01*
X17911911Y-10246993D02*
X17907150Y-10261279D01*
X17907150Y-10261279D02*
X17850007Y-10318422D01*
X17850007Y-10318422D02*
X17911911Y-10318422D01*
X13620593Y-11899788D02*
X13615831Y-11904550D01*
X13615831Y-11904550D02*
X13601546Y-11909312D01*
X13601546Y-11909312D02*
X13592022Y-11909312D01*
X13592022Y-11909312D02*
X13577736Y-11904550D01*
X13577736Y-11904550D02*
X13568212Y-11895026D01*
X13568212Y-11895026D02*
X13563450Y-11885502D01*
X13563450Y-11885502D02*
X13558689Y-11866455D01*
X13558689Y-11866455D02*
X13558689Y-11852169D01*
X13558689Y-11852169D02*
X13563450Y-11833121D01*
X13563450Y-11833121D02*
X13568212Y-11823598D01*
X13568212Y-11823598D02*
X13577736Y-11814074D01*
X13577736Y-11814074D02*
X13592022Y-11809312D01*
X13592022Y-11809312D02*
X13601546Y-11809312D01*
X13601546Y-11809312D02*
X13615831Y-11814074D01*
X13615831Y-11814074D02*
X13620593Y-11818836D01*
X13658689Y-11818836D02*
X13663450Y-11814074D01*
X13663450Y-11814074D02*
X13672974Y-11809312D01*
X13672974Y-11809312D02*
X13696784Y-11809312D01*
X13696784Y-11809312D02*
X13706308Y-11814074D01*
X13706308Y-11814074D02*
X13711069Y-11818836D01*
X13711069Y-11818836D02*
X13715831Y-11828359D01*
X13715831Y-11828359D02*
X13715831Y-11837883D01*
X13715831Y-11837883D02*
X13711069Y-11852169D01*
X13711069Y-11852169D02*
X13653927Y-11909312D01*
X13653927Y-11909312D02*
X13715831Y-11909312D01*
X16027154Y-11535948D02*
X16022392Y-11540710D01*
X16022392Y-11540710D02*
X16008107Y-11545472D01*
X16008107Y-11545472D02*
X15998583Y-11545472D01*
X15998583Y-11545472D02*
X15984297Y-11540710D01*
X15984297Y-11540710D02*
X15974773Y-11531186D01*
X15974773Y-11531186D02*
X15970011Y-11521662D01*
X15970011Y-11521662D02*
X15965249Y-11502615D01*
X15965249Y-11502615D02*
X15965249Y-11488329D01*
X15965249Y-11488329D02*
X15970011Y-11469281D01*
X15970011Y-11469281D02*
X15974773Y-11459758D01*
X15974773Y-11459758D02*
X15984297Y-11450234D01*
X15984297Y-11450234D02*
X15998583Y-11445472D01*
X15998583Y-11445472D02*
X16008107Y-11445472D01*
X16008107Y-11445472D02*
X16022392Y-11450234D01*
X16022392Y-11450234D02*
X16027154Y-11454996D01*
X16122392Y-11545472D02*
X16065249Y-11545472D01*
X16093821Y-11545472D02*
X16093821Y-11445472D01*
X16093821Y-11445472D02*
X16084297Y-11459758D01*
X16084297Y-11459758D02*
X16074773Y-11469281D01*
X16074773Y-11469281D02*
X16065249Y-11474043D01*
X16208107Y-11445472D02*
X16189059Y-11445472D01*
X16189059Y-11445472D02*
X16179535Y-11450234D01*
X16179535Y-11450234D02*
X16174773Y-11454996D01*
X16174773Y-11454996D02*
X16165249Y-11469281D01*
X16165249Y-11469281D02*
X16160488Y-11488329D01*
X16160488Y-11488329D02*
X16160488Y-11526424D01*
X16160488Y-11526424D02*
X16165249Y-11535948D01*
X16165249Y-11535948D02*
X16170011Y-11540710D01*
X16170011Y-11540710D02*
X16179535Y-11545472D01*
X16179535Y-11545472D02*
X16198583Y-11545472D01*
X16198583Y-11545472D02*
X16208107Y-11540710D01*
X16208107Y-11540710D02*
X16212868Y-11535948D01*
X16212868Y-11535948D02*
X16217630Y-11526424D01*
X16217630Y-11526424D02*
X16217630Y-11502615D01*
X16217630Y-11502615D02*
X16212868Y-11493091D01*
X16212868Y-11493091D02*
X16208107Y-11488329D01*
X16208107Y-11488329D02*
X16198583Y-11483567D01*
X16198583Y-11483567D02*
X16179535Y-11483567D01*
X16179535Y-11483567D02*
X16170011Y-11488329D01*
X16170011Y-11488329D02*
X16165249Y-11493091D01*
X16165249Y-11493091D02*
X16160488Y-11502615D01*
X17551453Y-8704118D02*
X17546691Y-8708880D01*
X17546691Y-8708880D02*
X17532406Y-8713642D01*
X17532406Y-8713642D02*
X17522882Y-8713642D01*
X17522882Y-8713642D02*
X17508596Y-8708880D01*
X17508596Y-8708880D02*
X17499072Y-8699356D01*
X17499072Y-8699356D02*
X17494311Y-8689832D01*
X17494311Y-8689832D02*
X17489549Y-8670785D01*
X17489549Y-8670785D02*
X17489549Y-8656499D01*
X17489549Y-8656499D02*
X17494311Y-8637451D01*
X17494311Y-8637451D02*
X17499072Y-8627928D01*
X17499072Y-8627928D02*
X17508596Y-8618404D01*
X17508596Y-8618404D02*
X17522882Y-8613642D01*
X17522882Y-8613642D02*
X17532406Y-8613642D01*
X17532406Y-8613642D02*
X17546691Y-8618404D01*
X17546691Y-8618404D02*
X17551453Y-8623166D01*
X17646691Y-8713642D02*
X17589549Y-8713642D01*
X17618120Y-8713642D02*
X17618120Y-8613642D01*
X17618120Y-8613642D02*
X17608596Y-8627928D01*
X17608596Y-8627928D02*
X17599072Y-8637451D01*
X17599072Y-8637451D02*
X17589549Y-8642213D01*
X17783553Y-9799082D02*
X17750220Y-9751463D01*
X17726411Y-9799082D02*
X17726411Y-9699082D01*
X17726411Y-9699082D02*
X17764506Y-9699082D01*
X17764506Y-9699082D02*
X17774030Y-9703844D01*
X17774030Y-9703844D02*
X17778791Y-9708606D01*
X17778791Y-9708606D02*
X17783553Y-9718130D01*
X17783553Y-9718130D02*
X17783553Y-9732415D01*
X17783553Y-9732415D02*
X17778791Y-9741939D01*
X17778791Y-9741939D02*
X17774030Y-9746701D01*
X17774030Y-9746701D02*
X17764506Y-9751463D01*
X17764506Y-9751463D02*
X17726411Y-9751463D01*
X17878791Y-9799082D02*
X17821649Y-9799082D01*
X17850220Y-9799082D02*
X17850220Y-9699082D01*
X17850220Y-9699082D02*
X17840696Y-9713368D01*
X17840696Y-9713368D02*
X17831172Y-9722891D01*
X17831172Y-9722891D02*
X17821649Y-9727653D01*
X16179014Y-10350898D02*
X16174252Y-10355660D01*
X16174252Y-10355660D02*
X16159967Y-10360422D01*
X16159967Y-10360422D02*
X16150443Y-10360422D01*
X16150443Y-10360422D02*
X16136157Y-10355660D01*
X16136157Y-10355660D02*
X16126633Y-10346136D01*
X16126633Y-10346136D02*
X16121871Y-10336612D01*
X16121871Y-10336612D02*
X16117109Y-10317565D01*
X16117109Y-10317565D02*
X16117109Y-10303279D01*
X16117109Y-10303279D02*
X16121871Y-10284231D01*
X16121871Y-10284231D02*
X16126633Y-10274708D01*
X16126633Y-10274708D02*
X16136157Y-10265184D01*
X16136157Y-10265184D02*
X16150443Y-10260422D01*
X16150443Y-10260422D02*
X16159967Y-10260422D01*
X16159967Y-10260422D02*
X16174252Y-10265184D01*
X16174252Y-10265184D02*
X16179014Y-10269946D01*
X16274252Y-10360422D02*
X16217109Y-10360422D01*
X16245681Y-10360422D02*
X16245681Y-10260422D01*
X16245681Y-10260422D02*
X16236157Y-10274708D01*
X16236157Y-10274708D02*
X16226633Y-10284231D01*
X16226633Y-10284231D02*
X16217109Y-10288993D01*
X16312348Y-10269946D02*
X16317109Y-10265184D01*
X16317109Y-10265184D02*
X16326633Y-10260422D01*
X16326633Y-10260422D02*
X16350443Y-10260422D01*
X16350443Y-10260422D02*
X16359967Y-10265184D01*
X16359967Y-10265184D02*
X16364728Y-10269946D01*
X16364728Y-10269946D02*
X16369490Y-10279470D01*
X16369490Y-10279470D02*
X16369490Y-10288993D01*
X16369490Y-10288993D02*
X16364728Y-10303279D01*
X16364728Y-10303279D02*
X16307586Y-10360422D01*
X16307586Y-10360422D02*
X16369490Y-10360422D01*
X15424063Y-12001581D02*
X15419301Y-12006343D01*
X15419301Y-12006343D02*
X15405016Y-12011105D01*
X15405016Y-12011105D02*
X15395492Y-12011105D01*
X15395492Y-12011105D02*
X15381206Y-12006343D01*
X15381206Y-12006343D02*
X15371682Y-11996819D01*
X15371682Y-11996819D02*
X15366920Y-11987296D01*
X15366920Y-11987296D02*
X15362159Y-11968248D01*
X15362159Y-11968248D02*
X15362159Y-11953962D01*
X15362159Y-11953962D02*
X15366920Y-11934915D01*
X15366920Y-11934915D02*
X15371682Y-11925391D01*
X15371682Y-11925391D02*
X15381206Y-11915867D01*
X15381206Y-11915867D02*
X15395492Y-11911105D01*
X15395492Y-11911105D02*
X15405016Y-11911105D01*
X15405016Y-11911105D02*
X15419301Y-11915867D01*
X15419301Y-11915867D02*
X15424063Y-11920629D01*
X15457397Y-11911105D02*
X15524063Y-11911105D01*
X15524063Y-11911105D02*
X15481206Y-12011105D01*
X17030934Y-8697358D02*
X17026172Y-8702120D01*
X17026172Y-8702120D02*
X17011887Y-8706882D01*
X17011887Y-8706882D02*
X17002363Y-8706882D01*
X17002363Y-8706882D02*
X16988077Y-8702120D01*
X16988077Y-8702120D02*
X16978553Y-8692596D01*
X16978553Y-8692596D02*
X16973791Y-8683072D01*
X16973791Y-8683072D02*
X16969030Y-8664025D01*
X16969030Y-8664025D02*
X16969030Y-8649739D01*
X16969030Y-8649739D02*
X16973791Y-8630691D01*
X16973791Y-8630691D02*
X16978553Y-8621168D01*
X16978553Y-8621168D02*
X16988077Y-8611644D01*
X16988077Y-8611644D02*
X17002363Y-8606882D01*
X17002363Y-8606882D02*
X17011887Y-8606882D01*
X17011887Y-8606882D02*
X17026172Y-8611644D01*
X17026172Y-8611644D02*
X17030934Y-8616406D01*
X17126172Y-8706882D02*
X17069030Y-8706882D01*
X17097601Y-8706882D02*
X17097601Y-8606882D01*
X17097601Y-8606882D02*
X17088077Y-8621168D01*
X17088077Y-8621168D02*
X17078553Y-8630691D01*
X17078553Y-8630691D02*
X17069030Y-8635453D01*
X17211887Y-8640215D02*
X17211887Y-8706882D01*
X17188077Y-8602120D02*
X17164268Y-8673549D01*
X17164268Y-8673549D02*
X17226172Y-8673549D01*
X13620593Y-12115168D02*
X13615831Y-12119930D01*
X13615831Y-12119930D02*
X13601546Y-12124692D01*
X13601546Y-12124692D02*
X13592022Y-12124692D01*
X13592022Y-12124692D02*
X13577736Y-12119930D01*
X13577736Y-12119930D02*
X13568212Y-12110406D01*
X13568212Y-12110406D02*
X13563450Y-12100882D01*
X13563450Y-12100882D02*
X13558689Y-12081835D01*
X13558689Y-12081835D02*
X13558689Y-12067549D01*
X13558689Y-12067549D02*
X13563450Y-12048501D01*
X13563450Y-12048501D02*
X13568212Y-12038978D01*
X13568212Y-12038978D02*
X13577736Y-12029454D01*
X13577736Y-12029454D02*
X13592022Y-12024692D01*
X13592022Y-12024692D02*
X13601546Y-12024692D01*
X13601546Y-12024692D02*
X13615831Y-12029454D01*
X13615831Y-12029454D02*
X13620593Y-12034216D01*
X13653927Y-12024692D02*
X13715831Y-12024692D01*
X13715831Y-12024692D02*
X13682498Y-12062787D01*
X13682498Y-12062787D02*
X13696784Y-12062787D01*
X13696784Y-12062787D02*
X13706308Y-12067549D01*
X13706308Y-12067549D02*
X13711069Y-12072311D01*
X13711069Y-12072311D02*
X13715831Y-12081835D01*
X13715831Y-12081835D02*
X13715831Y-12105644D01*
X13715831Y-12105644D02*
X13711069Y-12115168D01*
X13711069Y-12115168D02*
X13706308Y-12119930D01*
X13706308Y-12119930D02*
X13696784Y-12124692D01*
X13696784Y-12124692D02*
X13668212Y-12124692D01*
X13668212Y-12124692D02*
X13658689Y-12119930D01*
X13658689Y-12119930D02*
X13653927Y-12115168D01*
X15993493Y-12167772D02*
X15960160Y-12120153D01*
X15936350Y-12167772D02*
X15936350Y-12067772D01*
X15936350Y-12067772D02*
X15974446Y-12067772D01*
X15974446Y-12067772D02*
X15983969Y-12072534D01*
X15983969Y-12072534D02*
X15988731Y-12077296D01*
X15988731Y-12077296D02*
X15993493Y-12086819D01*
X15993493Y-12086819D02*
X15993493Y-12101105D01*
X15993493Y-12101105D02*
X15988731Y-12110629D01*
X15988731Y-12110629D02*
X15983969Y-12115391D01*
X15983969Y-12115391D02*
X15974446Y-12120153D01*
X15974446Y-12120153D02*
X15936350Y-12120153D01*
X16026827Y-12067772D02*
X16093493Y-12067772D01*
X16093493Y-12067772D02*
X16050636Y-12167772D01*
X16833693Y-9816862D02*
X16800360Y-9769243D01*
X16776550Y-9816862D02*
X16776550Y-9716862D01*
X16776550Y-9716862D02*
X16814646Y-9716862D01*
X16814646Y-9716862D02*
X16824170Y-9721624D01*
X16824170Y-9721624D02*
X16828931Y-9726386D01*
X16828931Y-9726386D02*
X16833693Y-9735910D01*
X16833693Y-9735910D02*
X16833693Y-9750195D01*
X16833693Y-9750195D02*
X16828931Y-9759719D01*
X16828931Y-9759719D02*
X16824170Y-9764481D01*
X16824170Y-9764481D02*
X16814646Y-9769243D01*
X16814646Y-9769243D02*
X16776550Y-9769243D01*
X16919408Y-9716862D02*
X16900360Y-9716862D01*
X16900360Y-9716862D02*
X16890836Y-9721624D01*
X16890836Y-9721624D02*
X16886074Y-9726386D01*
X16886074Y-9726386D02*
X16876551Y-9740671D01*
X16876551Y-9740671D02*
X16871789Y-9759719D01*
X16871789Y-9759719D02*
X16871789Y-9797814D01*
X16871789Y-9797814D02*
X16876551Y-9807338D01*
X16876551Y-9807338D02*
X16881312Y-9812100D01*
X16881312Y-9812100D02*
X16890836Y-9816862D01*
X16890836Y-9816862D02*
X16909884Y-9816862D01*
X16909884Y-9816862D02*
X16919408Y-9812100D01*
X16919408Y-9812100D02*
X16924170Y-9807338D01*
X16924170Y-9807338D02*
X16928931Y-9797814D01*
X16928931Y-9797814D02*
X16928931Y-9774005D01*
X16928931Y-9774005D02*
X16924170Y-9764481D01*
X16924170Y-9764481D02*
X16919408Y-9759719D01*
X16919408Y-9759719D02*
X16909884Y-9754957D01*
X16909884Y-9754957D02*
X16890836Y-9754957D01*
X16890836Y-9754957D02*
X16881312Y-9759719D01*
X16881312Y-9759719D02*
X16876551Y-9764481D01*
X16876551Y-9764481D02*
X16871789Y-9774005D01*
X12757671Y-10651252D02*
X12700529Y-10651252D01*
X12729100Y-10651252D02*
X12729100Y-10551252D01*
X12729100Y-10551252D02*
X12719576Y-10565538D01*
X12719576Y-10565538D02*
X12710052Y-10575061D01*
X12710052Y-10575061D02*
X12700529Y-10579823D01*
X13215767Y-10551252D02*
X13277671Y-10551252D01*
X13277671Y-10551252D02*
X13244338Y-10589347D01*
X13244338Y-10589347D02*
X13258624Y-10589347D01*
X13258624Y-10589347D02*
X13268148Y-10594109D01*
X13268148Y-10594109D02*
X13272909Y-10598871D01*
X13272909Y-10598871D02*
X13277671Y-10608395D01*
X13277671Y-10608395D02*
X13277671Y-10632204D01*
X13277671Y-10632204D02*
X13272909Y-10641728D01*
X13272909Y-10641728D02*
X13268148Y-10646490D01*
X13268148Y-10646490D02*
X13258624Y-10651252D01*
X13258624Y-10651252D02*
X13230052Y-10651252D01*
X13230052Y-10651252D02*
X13220529Y-10646490D01*
X13220529Y-10646490D02*
X13215767Y-10641728D01*
X17552513Y-10899538D02*
X17547751Y-10904300D01*
X17547751Y-10904300D02*
X17533466Y-10909062D01*
X17533466Y-10909062D02*
X17523942Y-10909062D01*
X17523942Y-10909062D02*
X17509656Y-10904300D01*
X17509656Y-10904300D02*
X17500132Y-10894776D01*
X17500132Y-10894776D02*
X17495371Y-10885252D01*
X17495371Y-10885252D02*
X17490609Y-10866205D01*
X17490609Y-10866205D02*
X17490609Y-10851919D01*
X17490609Y-10851919D02*
X17495371Y-10832871D01*
X17495371Y-10832871D02*
X17500132Y-10823348D01*
X17500132Y-10823348D02*
X17509656Y-10813824D01*
X17509656Y-10813824D02*
X17523942Y-10809062D01*
X17523942Y-10809062D02*
X17533466Y-10809062D01*
X17533466Y-10809062D02*
X17547751Y-10813824D01*
X17547751Y-10813824D02*
X17552513Y-10818586D01*
X17638228Y-10809062D02*
X17619180Y-10809062D01*
X17619180Y-10809062D02*
X17609656Y-10813824D01*
X17609656Y-10813824D02*
X17604894Y-10818586D01*
X17604894Y-10818586D02*
X17595371Y-10832871D01*
X17595371Y-10832871D02*
X17590609Y-10851919D01*
X17590609Y-10851919D02*
X17590609Y-10890014D01*
X17590609Y-10890014D02*
X17595371Y-10899538D01*
X17595371Y-10899538D02*
X17600132Y-10904300D01*
X17600132Y-10904300D02*
X17609656Y-10909062D01*
X17609656Y-10909062D02*
X17628704Y-10909062D01*
X17628704Y-10909062D02*
X17638228Y-10904300D01*
X17638228Y-10904300D02*
X17642990Y-10899538D01*
X17642990Y-10899538D02*
X17647751Y-10890014D01*
X17647751Y-10890014D02*
X17647751Y-10866205D01*
X17647751Y-10866205D02*
X17642990Y-10856681D01*
X17642990Y-10856681D02*
X17638228Y-10851919D01*
X17638228Y-10851919D02*
X17628704Y-10847157D01*
X17628704Y-10847157D02*
X17609656Y-10847157D01*
X17609656Y-10847157D02*
X17600132Y-10851919D01*
X17600132Y-10851919D02*
X17595371Y-10856681D01*
X17595371Y-10856681D02*
X17590609Y-10866205D01*
X17060076Y-11099562D02*
X17026743Y-11051943D01*
X17002933Y-11099562D02*
X17002933Y-10999562D01*
X17002933Y-10999562D02*
X17041029Y-10999562D01*
X17041029Y-10999562D02*
X17050552Y-11004324D01*
X17050552Y-11004324D02*
X17055314Y-11009086D01*
X17055314Y-11009086D02*
X17060076Y-11018610D01*
X17060076Y-11018610D02*
X17060076Y-11032895D01*
X17060076Y-11032895D02*
X17055314Y-11042419D01*
X17055314Y-11042419D02*
X17050552Y-11047181D01*
X17050552Y-11047181D02*
X17041029Y-11051943D01*
X17041029Y-11051943D02*
X17002933Y-11051943D01*
X17088648Y-10999562D02*
X17121981Y-11099562D01*
X17121981Y-11099562D02*
X17155314Y-10999562D01*
X17241029Y-11099562D02*
X17183886Y-11099562D01*
X17212457Y-11099562D02*
X17212457Y-10999562D01*
X17212457Y-10999562D02*
X17202933Y-11013848D01*
X17202933Y-11013848D02*
X17193410Y-11023371D01*
X17193410Y-11023371D02*
X17183886Y-11028133D01*
X15371834Y-11501518D02*
X15367072Y-11506280D01*
X15367072Y-11506280D02*
X15352787Y-11511042D01*
X15352787Y-11511042D02*
X15343263Y-11511042D01*
X15343263Y-11511042D02*
X15328977Y-11506280D01*
X15328977Y-11506280D02*
X15319453Y-11496756D01*
X15319453Y-11496756D02*
X15314691Y-11487232D01*
X15314691Y-11487232D02*
X15309929Y-11468185D01*
X15309929Y-11468185D02*
X15309929Y-11453899D01*
X15309929Y-11453899D02*
X15314691Y-11434851D01*
X15314691Y-11434851D02*
X15319453Y-11425328D01*
X15319453Y-11425328D02*
X15328977Y-11415804D01*
X15328977Y-11415804D02*
X15343263Y-11411042D01*
X15343263Y-11411042D02*
X15352787Y-11411042D01*
X15352787Y-11411042D02*
X15367072Y-11415804D01*
X15367072Y-11415804D02*
X15371834Y-11420566D01*
X15467072Y-11511042D02*
X15409929Y-11511042D01*
X15438501Y-11511042D02*
X15438501Y-11411042D01*
X15438501Y-11411042D02*
X15428977Y-11425328D01*
X15428977Y-11425328D02*
X15419453Y-11434851D01*
X15419453Y-11434851D02*
X15409929Y-11439613D01*
X15557548Y-11411042D02*
X15509929Y-11411042D01*
X15509929Y-11411042D02*
X15505168Y-11458661D01*
X15505168Y-11458661D02*
X15509929Y-11453899D01*
X15509929Y-11453899D02*
X15519453Y-11449137D01*
X15519453Y-11449137D02*
X15543263Y-11449137D01*
X15543263Y-11449137D02*
X15552787Y-11453899D01*
X15552787Y-11453899D02*
X15557548Y-11458661D01*
X15557548Y-11458661D02*
X15562310Y-11468185D01*
X15562310Y-11468185D02*
X15562310Y-11491994D01*
X15562310Y-11491994D02*
X15557548Y-11501518D01*
X15557548Y-11501518D02*
X15552787Y-11506280D01*
X15552787Y-11506280D02*
X15543263Y-11511042D01*
X15543263Y-11511042D02*
X15519453Y-11511042D01*
X15519453Y-11511042D02*
X15509929Y-11506280D01*
X15509929Y-11506280D02*
X15505168Y-11501518D01*
X14114402Y-12385353D02*
X14185830Y-12385353D01*
X14185830Y-12385353D02*
X14200116Y-12390115D01*
X14200116Y-12390115D02*
X14209640Y-12399639D01*
X14209640Y-12399639D02*
X14214402Y-12413925D01*
X14214402Y-12413925D02*
X14214402Y-12423448D01*
X14147735Y-12294877D02*
X14214402Y-12294877D01*
X14109640Y-12318687D02*
X14181068Y-12342496D01*
X14181068Y-12342496D02*
X14181068Y-12280591D01*
X17809053Y-9985138D02*
X17804291Y-9989900D01*
X17804291Y-9989900D02*
X17790006Y-9994662D01*
X17790006Y-9994662D02*
X17780482Y-9994662D01*
X17780482Y-9994662D02*
X17766196Y-9989900D01*
X17766196Y-9989900D02*
X17756672Y-9980376D01*
X17756672Y-9980376D02*
X17751911Y-9970852D01*
X17751911Y-9970852D02*
X17747149Y-9951805D01*
X17747149Y-9951805D02*
X17747149Y-9937519D01*
X17747149Y-9937519D02*
X17751911Y-9918471D01*
X17751911Y-9918471D02*
X17756672Y-9908948D01*
X17756672Y-9908948D02*
X17766196Y-9899424D01*
X17766196Y-9899424D02*
X17780482Y-9894662D01*
X17780482Y-9894662D02*
X17790006Y-9894662D01*
X17790006Y-9894662D02*
X17804291Y-9899424D01*
X17804291Y-9899424D02*
X17809053Y-9904186D01*
X17894768Y-9927995D02*
X17894768Y-9994662D01*
X17870958Y-9889900D02*
X17847149Y-9961329D01*
X17847149Y-9961329D02*
X17909053Y-9961329D01*
X16787176Y-9046606D02*
X16777652Y-9041844D01*
X16777652Y-9041844D02*
X16768128Y-9032320D01*
X16768128Y-9032320D02*
X16753843Y-9018034D01*
X16753843Y-9018034D02*
X16744319Y-9013272D01*
X16744319Y-9013272D02*
X16734795Y-9013272D01*
X16739557Y-9037082D02*
X16730033Y-9032320D01*
X16730033Y-9032320D02*
X16720509Y-9022796D01*
X16720509Y-9022796D02*
X16715748Y-9003749D01*
X16715748Y-9003749D02*
X16715748Y-8970415D01*
X16715748Y-8970415D02*
X16720509Y-8951368D01*
X16720509Y-8951368D02*
X16730033Y-8941844D01*
X16730033Y-8941844D02*
X16739557Y-8937082D01*
X16739557Y-8937082D02*
X16758605Y-8937082D01*
X16758605Y-8937082D02*
X16768128Y-8941844D01*
X16768128Y-8941844D02*
X16777652Y-8951368D01*
X16777652Y-8951368D02*
X16782414Y-8970415D01*
X16782414Y-8970415D02*
X16782414Y-9003749D01*
X16782414Y-9003749D02*
X16777652Y-9022796D01*
X16777652Y-9022796D02*
X16768128Y-9032320D01*
X16768128Y-9032320D02*
X16758605Y-9037082D01*
X16758605Y-9037082D02*
X16739557Y-9037082D01*
X16820510Y-8946606D02*
X16825271Y-8941844D01*
X16825271Y-8941844D02*
X16834795Y-8937082D01*
X16834795Y-8937082D02*
X16858605Y-8937082D01*
X16858605Y-8937082D02*
X16868129Y-8941844D01*
X16868129Y-8941844D02*
X16872890Y-8946606D01*
X16872890Y-8946606D02*
X16877652Y-8956130D01*
X16877652Y-8956130D02*
X16877652Y-8965653D01*
X16877652Y-8965653D02*
X16872890Y-8979939D01*
X16872890Y-8979939D02*
X16815748Y-9037082D01*
X16815748Y-9037082D02*
X16877652Y-9037082D01*
X16713754Y-9990218D02*
X16708992Y-9994980D01*
X16708992Y-9994980D02*
X16694707Y-9999742D01*
X16694707Y-9999742D02*
X16685183Y-9999742D01*
X16685183Y-9999742D02*
X16670897Y-9994980D01*
X16670897Y-9994980D02*
X16661373Y-9985456D01*
X16661373Y-9985456D02*
X16656611Y-9975932D01*
X16656611Y-9975932D02*
X16651849Y-9956885D01*
X16651849Y-9956885D02*
X16651849Y-9942599D01*
X16651849Y-9942599D02*
X16656611Y-9923551D01*
X16656611Y-9923551D02*
X16661373Y-9914028D01*
X16661373Y-9914028D02*
X16670897Y-9904504D01*
X16670897Y-9904504D02*
X16685183Y-9899742D01*
X16685183Y-9899742D02*
X16694707Y-9899742D01*
X16694707Y-9899742D02*
X16708992Y-9904504D01*
X16708992Y-9904504D02*
X16713754Y-9909266D01*
X16808992Y-9999742D02*
X16751849Y-9999742D01*
X16780421Y-9999742D02*
X16780421Y-9899742D01*
X16780421Y-9899742D02*
X16770897Y-9914028D01*
X16770897Y-9914028D02*
X16761373Y-9923551D01*
X16761373Y-9923551D02*
X16751849Y-9928313D01*
X16904230Y-9999742D02*
X16847088Y-9999742D01*
X16875659Y-9999742D02*
X16875659Y-9899742D01*
X16875659Y-9899742D02*
X16866135Y-9914028D01*
X16866135Y-9914028D02*
X16856611Y-9923551D01*
X16856611Y-9923551D02*
X16847088Y-9928313D01*
D12*
%TO.C,J1*%
X10464180Y-11772900D02*
X10464180Y-12047400D01*
X10464180Y-12249400D02*
X10464180Y-12308900D01*
X10464180Y-12308900D02*
X12860180Y-12308900D01*
X10580180Y-11772900D02*
X10464180Y-11772900D01*
X10580180Y-11798900D02*
X10580180Y-11772900D01*
X10648680Y-11798900D02*
X10580180Y-11798900D01*
X10648680Y-11798900D02*
X10648680Y-11738400D01*
X12744180Y-11772900D02*
X12744180Y-11798900D01*
X12744180Y-11798900D02*
X12675680Y-11798900D01*
X12860180Y-11772900D02*
X12744180Y-11772900D01*
X12860180Y-12047400D02*
X12860180Y-11772900D01*
X12860180Y-12308900D02*
X12860180Y-12249400D01*
%TO.C,D13*%
X17095770Y-9364660D02*
X17030770Y-9364660D01*
X17095770Y-9364660D02*
X17160770Y-9364660D01*
X17095770Y-9676660D02*
X17030770Y-9676660D01*
X17095770Y-9676660D02*
X17160770Y-9676660D01*
X16979520Y-9369660D02*
X16955520Y-9336660D01*
X17003520Y-9336660D01*
X16979520Y-9369660D01*
G36*
X16979520Y-9369660D02*
G01*
X16955520Y-9336660D01*
X17003520Y-9336660D01*
X16979520Y-9369660D01*
G37*
%TO.C,TP2*%
X14463780Y-10876280D02*
G75*
G02*
X14273780Y-10876280I-95000J0D01*
G01*
X14273780Y-10876280D02*
G75*
G02*
X14463780Y-10876280I95000J0D01*
G01*
%TO.C,JP12*%
X12784100Y-9534680D02*
X12784100Y-9474680D01*
X12849100Y-9404680D02*
X13129100Y-9404680D01*
X13129100Y-9604680D02*
X12849100Y-9604680D01*
X13194100Y-9474680D02*
X13194100Y-9534680D01*
X12784100Y-9474680D02*
G75*
G02*
X12854100Y-9404680I70000J0D01*
G01*
X12854100Y-9604680D02*
G75*
G02*
X12784100Y-9534680I0J70000D01*
G01*
X13124100Y-9404680D02*
G75*
G02*
X13194100Y-9474680I0J-70000D01*
G01*
X13194100Y-9534680D02*
G75*
G02*
X13124100Y-9604680I-70000J0D01*
G01*
%TO.C,TP5*%
X15208090Y-11376660D02*
G75*
G02*
X15018090Y-11376660I-95000J0D01*
G01*
X15018090Y-11376660D02*
G75*
G02*
X15208090Y-11376660I95000J0D01*
G01*
D13*
%TO.C,J3*%
X14976880Y-8003974D02*
X14976880Y-8299630D01*
X14976880Y-8299630D02*
X15143546Y-8299630D01*
X17685494Y-8299630D02*
X17852160Y-8299630D01*
X17700081Y-7784010D02*
X15128959Y-7784010D01*
X17852160Y-8299630D02*
X17852160Y-8003974D01*
D12*
%TO.C,C10*%
X14423590Y-11329325D02*
X14423590Y-11381575D01*
X14570590Y-11329325D02*
X14570590Y-11381575D01*
%TO.C,C8*%
X17043520Y-10651578D02*
X17043520Y-10623462D01*
X17145520Y-10651578D02*
X17145520Y-10623462D01*
%TO.C,D12*%
X17568950Y-9347160D02*
X17503950Y-9347160D01*
X17568950Y-9347160D02*
X17633950Y-9347160D01*
X17568950Y-9659160D02*
X17503950Y-9659160D01*
X17568950Y-9659160D02*
X17633950Y-9659160D01*
X17709200Y-9687160D02*
X17661200Y-9687160D01*
X17685200Y-9654160D01*
X17709200Y-9687160D01*
G36*
X17709200Y-9687160D02*
G01*
X17661200Y-9687160D01*
X17685200Y-9654160D01*
X17709200Y-9687160D01*
G37*
%TO.C,R3*%
X15171864Y-12079320D02*
X15219316Y-12079320D01*
X15171864Y-12183820D02*
X15219316Y-12183820D01*
%TO.C,TP7*%
X16640560Y-9311640D02*
G75*
G02*
X16450560Y-9311640I-95000J0D01*
G01*
X16450560Y-9311640D02*
G75*
G02*
X16640560Y-9311640I95000J0D01*
G01*
%TO.C,U2*%
X15758700Y-11580210D02*
X15678700Y-11580210D01*
X15758700Y-11580210D02*
X15838700Y-11580210D01*
X15758700Y-11892210D02*
X15678700Y-11892210D01*
X15758700Y-11892210D02*
X15838700Y-11892210D01*
X15912700Y-11920210D02*
X15864700Y-11920210D01*
X15888700Y-11887210D01*
X15912700Y-11920210D01*
G36*
X15912700Y-11920210D02*
G01*
X15864700Y-11920210D01*
X15888700Y-11887210D01*
X15912700Y-11920210D01*
G37*
%TO.C,D4*%
X16938520Y-10279380D02*
X16938520Y-10214380D01*
X16938520Y-10279380D02*
X16938520Y-10344380D01*
X17250520Y-10279380D02*
X17250520Y-10214380D01*
X17250520Y-10279380D02*
X17250520Y-10344380D01*
X16943520Y-10395630D02*
X16910520Y-10419630D01*
X16910520Y-10371630D01*
X16943520Y-10395630D01*
G36*
X16943520Y-10395630D02*
G01*
X16910520Y-10419630D01*
X16910520Y-10371630D01*
X16943520Y-10395630D01*
G37*
%TO.C,C13*%
X14644570Y-11329325D02*
X14644570Y-11381575D01*
X14791570Y-11329325D02*
X14791570Y-11381575D01*
%TO.C,JP15*%
X12784100Y-10268740D02*
X12784100Y-10208740D01*
X12849100Y-10138740D02*
X13129100Y-10138740D01*
X13129100Y-10338740D02*
X12849100Y-10338740D01*
X13194100Y-10208740D02*
X13194100Y-10268740D01*
X12784100Y-10208740D02*
G75*
G02*
X12854100Y-10138740I70000J0D01*
G01*
X12854100Y-10338740D02*
G75*
G02*
X12784100Y-10268740I0J70000D01*
G01*
X13124100Y-10138740D02*
G75*
G02*
X13194100Y-10208740I0J-70000D01*
G01*
X13194100Y-10268740D02*
G75*
G02*
X13124100Y-10338740I-70000J0D01*
G01*
%TO.C,R5*%
X15171864Y-11747427D02*
X15219316Y-11747427D01*
X15171864Y-11851927D02*
X15219316Y-11851927D01*
%TO.C,JP14*%
X12784100Y-9901710D02*
X12784100Y-9841710D01*
X12849100Y-9771710D02*
X13129100Y-9771710D01*
X13129100Y-9971710D02*
X12849100Y-9971710D01*
X13194100Y-9841710D02*
X13194100Y-9901710D01*
X12784100Y-9841710D02*
G75*
G02*
X12854100Y-9771710I70000J0D01*
G01*
X12854100Y-9971710D02*
G75*
G02*
X12784100Y-9901710I0J70000D01*
G01*
X13124100Y-9771710D02*
G75*
G02*
X13194100Y-9841710I0J-70000D01*
G01*
X13194100Y-9901710D02*
G75*
G02*
X13124100Y-9971710I-70000J0D01*
G01*
%TO.C,D3*%
X14148170Y-11179450D02*
X14148170Y-11565450D01*
X14348170Y-11179450D02*
X14148170Y-11179450D01*
X14348170Y-11179450D02*
X14348170Y-11565450D01*
%TO.C,D5*%
X16562050Y-10470230D02*
X16497050Y-10470230D01*
X16562050Y-10470230D02*
X16627050Y-10470230D01*
X16562050Y-10782230D02*
X16497050Y-10782230D01*
X16562050Y-10782230D02*
X16627050Y-10782230D01*
X16702300Y-10810230D02*
X16654300Y-10810230D01*
X16678300Y-10777230D01*
X16702300Y-10810230D01*
G36*
X16702300Y-10810230D02*
G01*
X16654300Y-10810230D01*
X16678300Y-10777230D01*
X16702300Y-10810230D01*
G37*
D13*
%TO.C,J2*%
X10224540Y-8003974D02*
X10224540Y-8299630D01*
X10224540Y-8299630D02*
X10391206Y-8299630D01*
X12933154Y-8299630D02*
X13099820Y-8299630D01*
X12947741Y-7784010D02*
X10376619Y-7784010D01*
X13099820Y-8299630D02*
X13099820Y-8003974D01*
D12*
%TO.C,Q1*%
X17566870Y-8978860D02*
X17501870Y-8978860D01*
X17566870Y-8978860D02*
X17631870Y-8978860D01*
X17566870Y-9290860D02*
X17501870Y-9290860D01*
X17566870Y-9290860D02*
X17631870Y-9290860D01*
X17707120Y-9318860D02*
X17659120Y-9318860D01*
X17683120Y-9285860D01*
X17707120Y-9318860D01*
G36*
X17707120Y-9318860D02*
G01*
X17659120Y-9318860D01*
X17683120Y-9285860D01*
X17707120Y-9318860D01*
G37*
%TO.C,JP13*%
X12784100Y-11002800D02*
X12784100Y-10942800D01*
X12849100Y-10872800D02*
X13129100Y-10872800D01*
X13129100Y-11072800D02*
X12849100Y-11072800D01*
X13194100Y-10942800D02*
X13194100Y-11002800D01*
X12784100Y-10942800D02*
G75*
G02*
X12854100Y-10872800I70000J0D01*
G01*
X12854100Y-11072800D02*
G75*
G02*
X12784100Y-11002800I0J70000D01*
G01*
X13124100Y-10872800D02*
G75*
G02*
X13194100Y-10942800I0J-70000D01*
G01*
X13194100Y-11002800D02*
G75*
G02*
X13124100Y-11072800I-70000J0D01*
G01*
%TO.C,R4*%
X15171864Y-11581480D02*
X15219316Y-11581480D01*
X15171864Y-11685980D02*
X15219316Y-11685980D01*
%TO.C,R2*%
X13940414Y-10824030D02*
X13987866Y-10824030D01*
X13940414Y-10928530D02*
X13987866Y-10928530D01*
%TO.C,C5*%
X13911252Y-12216170D02*
X13939368Y-12216170D01*
X13911252Y-12318170D02*
X13939368Y-12318170D01*
%TO.C,TP8*%
X18375380Y-7216140D02*
G75*
G02*
X18185380Y-7216140I-95000J0D01*
G01*
X18185380Y-7216140D02*
G75*
G02*
X18375380Y-7216140I95000J0D01*
G01*
%TO.C,L1*%
X13655640Y-11238530D02*
X13675640Y-11238530D01*
X13655640Y-11690530D02*
X13655640Y-11238530D01*
X13655640Y-11690530D02*
X13675640Y-11690530D01*
X14107640Y-11238530D02*
X14087640Y-11238530D01*
X14107640Y-11690530D02*
X14087640Y-11690530D01*
X14107640Y-11690530D02*
X14107640Y-11238530D01*
%TO.C,U1*%
X14534420Y-11735330D02*
X14314420Y-11735330D01*
X14534420Y-11735330D02*
X14754420Y-11735330D01*
X14534420Y-12057330D02*
X14314420Y-12057330D01*
X14534420Y-12057330D02*
X14754420Y-12057330D01*
X14848420Y-12072830D02*
X14800420Y-12072830D01*
X14824420Y-12039830D01*
X14848420Y-12072830D01*
G36*
X14848420Y-12072830D02*
G01*
X14800420Y-12072830D01*
X14824420Y-12039830D01*
X14848420Y-12072830D01*
G37*
%TO.C,R8*%
X15787506Y-12227520D02*
X15740054Y-12227520D01*
X15787506Y-12332020D02*
X15740054Y-12332020D01*
%TO.C,C9*%
X16153042Y-10575230D02*
X16181158Y-10575230D01*
X16153042Y-10677230D02*
X16181158Y-10677230D01*
%TO.C,D2*%
X17414200Y-10276610D02*
X17414200Y-10211610D01*
X17414200Y-10276610D02*
X17414200Y-10341610D01*
X17726200Y-10276610D02*
X17726200Y-10211610D01*
X17726200Y-10276610D02*
X17726200Y-10341610D01*
X17419200Y-10392860D02*
X17386200Y-10416860D01*
X17386200Y-10368860D01*
X17419200Y-10392860D01*
G36*
X17419200Y-10392860D02*
G01*
X17386200Y-10416860D01*
X17386200Y-10368860D01*
X17419200Y-10392860D01*
G37*
%TO.C,TP10*%
X17679420Y-11407140D02*
G75*
G02*
X17489420Y-11407140I-95000J0D01*
G01*
X17489420Y-11407140D02*
G75*
G02*
X17679420Y-11407140I95000J0D01*
G01*
%TO.C,TP11*%
X17966440Y-10104120D02*
G75*
G02*
X17776440Y-10104120I-95000J0D01*
G01*
X17776440Y-10104120D02*
G75*
G02*
X17966440Y-10104120I95000J0D01*
G01*
%TO.C,TP1*%
X18375380Y-7703820D02*
G75*
G02*
X18185380Y-7703820I-95000J0D01*
G01*
X18185380Y-7703820D02*
G75*
G02*
X18375380Y-7703820I95000J0D01*
G01*
%TO.C,TP9*%
X15314680Y-10248900D02*
G75*
G02*
X15124680Y-10248900I-95000J0D01*
G01*
X15124680Y-10248900D02*
G75*
G02*
X15314680Y-10248900I95000J0D01*
G01*
%TO.C,TP6*%
X17679420Y-11945620D02*
G75*
G02*
X17489420Y-11945620I-95000J0D01*
G01*
X17489420Y-11945620D02*
G75*
G02*
X17679420Y-11945620I95000J0D01*
G01*
%TO.C,C2*%
X13933935Y-11790330D02*
X13881685Y-11790330D01*
X13933935Y-11937330D02*
X13881685Y-11937330D01*
%TO.C,C16*%
X16017940Y-11762335D02*
X16017940Y-11710085D01*
X16164940Y-11762335D02*
X16164940Y-11710085D01*
%TO.C,C1*%
X17541995Y-8762660D02*
X17594245Y-8762660D01*
X17541995Y-8909660D02*
X17594245Y-8909660D01*
%TO.C,R1*%
X17581426Y-9701350D02*
X17533974Y-9701350D01*
X17581426Y-9805850D02*
X17533974Y-9805850D01*
%TO.C,C12*%
X16586925Y-10241440D02*
X16534675Y-10241440D01*
X16586925Y-10388440D02*
X16534675Y-10388440D01*
%TO.C,C7*%
X15209648Y-11914623D02*
X15181532Y-11914623D01*
X15209648Y-12016623D02*
X15181532Y-12016623D01*
%TO.C,C14*%
X17120325Y-8760620D02*
X17068075Y-8760620D01*
X17120325Y-8907620D02*
X17068075Y-8907620D01*
%TO.C,C3*%
X13933935Y-12005710D02*
X13881685Y-12005710D01*
X13933935Y-12152710D02*
X13881685Y-12152710D01*
%TO.C,R7*%
X15787506Y-12068630D02*
X15740054Y-12068630D01*
X15787506Y-12173130D02*
X15740054Y-12173130D01*
%TO.C,R6*%
X17130626Y-9721670D02*
X17083174Y-9721670D01*
X17130626Y-9826170D02*
X17083174Y-9826170D01*
%TO.C,TP4*%
X18375380Y-6728460D02*
G75*
G02*
X18185380Y-6728460I-95000J0D01*
G01*
X18185380Y-6728460D02*
G75*
G02*
X18375380Y-6728460I95000J0D01*
G01*
%TO.C,JP16*%
X12784100Y-10635770D02*
X12784100Y-10575770D01*
X12849100Y-10505770D02*
X13129100Y-10505770D01*
X13129100Y-10705770D02*
X12849100Y-10705770D01*
X13194100Y-10575770D02*
X13194100Y-10635770D01*
X12784100Y-10575770D02*
G75*
G02*
X12854100Y-10505770I70000J0D01*
G01*
X12854100Y-10705770D02*
G75*
G02*
X12784100Y-10635770I0J70000D01*
G01*
X13124100Y-10505770D02*
G75*
G02*
X13194100Y-10575770I0J-70000D01*
G01*
X13194100Y-10635770D02*
G75*
G02*
X13124100Y-10705770I-70000J0D01*
G01*
%TO.C,TP3*%
X16538960Y-9959340D02*
G75*
G02*
X16348960Y-9959340I-95000J0D01*
G01*
X16348960Y-9959340D02*
G75*
G02*
X16538960Y-9959340I95000J0D01*
G01*
%TO.C,C6*%
X17519200Y-10623462D02*
X17519200Y-10651578D01*
X17621200Y-10623462D02*
X17621200Y-10651578D01*
%TO.C,RV1*%
X16258460Y-11155220D02*
X16619860Y-11155220D01*
X16258460Y-12177220D02*
X16258460Y-11155220D01*
X16258460Y-12177220D02*
X16369860Y-12177220D01*
X16649060Y-12177220D02*
X16869860Y-12177220D01*
X16899060Y-11155220D02*
X17260460Y-11155220D01*
X17149060Y-12177220D02*
X17260460Y-12177220D01*
X17260460Y-12177220D02*
X17260460Y-11155220D01*
%TO.C,C15*%
X15749722Y-11414560D02*
X15777838Y-11414560D01*
X15749722Y-11516560D02*
X15777838Y-11516560D01*
%TO.C,JP1*%
X13824140Y-10695460D02*
X13824140Y-10635460D01*
X13894140Y-10565460D02*
X14034140Y-10565460D01*
X14034140Y-10765460D02*
X13894140Y-10765460D01*
X14104140Y-10635460D02*
X14104140Y-10695460D01*
X13824140Y-10635460D02*
G75*
G02*
X13894140Y-10565460I70000J0D01*
G01*
X13894140Y-10765460D02*
G75*
G02*
X13824140Y-10695460I0J70000D01*
G01*
X14034140Y-10565460D02*
G75*
G02*
X14104140Y-10635460I0J-70000D01*
G01*
X14104140Y-10695460D02*
G75*
G02*
X14034140Y-10765460I-70000J0D01*
G01*
%TO.C,J4*%
X14268920Y-12490020D02*
X14268920Y-12352020D01*
X14406920Y-12490020D02*
X14268920Y-12490020D01*
X14533920Y-12214020D02*
X14798920Y-12214020D01*
X14533920Y-12490020D02*
X14533920Y-12214020D01*
X14533920Y-12490020D02*
X14798920Y-12490020D01*
X14798920Y-12490020D02*
X14798920Y-12214020D01*
%TO.C,C4*%
X17544075Y-9875680D02*
X17596325Y-9875680D01*
X17544075Y-10022680D02*
X17596325Y-10022680D01*
%TO.C,Q2*%
X17095450Y-8969090D02*
X17030450Y-8969090D01*
X17095450Y-8969090D02*
X17160450Y-8969090D01*
X17095450Y-9281090D02*
X17030450Y-9281090D01*
X17095450Y-9281090D02*
X17160450Y-9281090D01*
X17235700Y-9309090D02*
X17187700Y-9309090D01*
X17211700Y-9276090D01*
X17235700Y-9309090D01*
G36*
X17235700Y-9309090D02*
G01*
X17187700Y-9309090D01*
X17211700Y-9276090D01*
X17235700Y-9309090D01*
G37*
%TO.C,C11*%
X17120645Y-9878220D02*
X17068395Y-9878220D01*
X17120645Y-10025220D02*
X17068395Y-10025220D01*
%TD*%
M02*
